<?xml version="1.0" encoding="utf-8"?>
<!-- Generator: Adobe Illustrator 26.0.2, SVG Export Plug-In . SVG Version: 6.00 Build 0)  -->
<svg version="1.1"
	 id="svg2" xmlns:cc="http://creativecommons.org/ns#" xmlns:dc="http://purl.org/dc/elements/1.1/" xmlns:inkscape="http://www.inkscape.org/namespaces/inkscape" xmlns:ns1="http://sozi.baierouge.fr" xmlns:rdf="http://www.w3.org/1999/02/22-rdf-syntax-ns#" xmlns:sodipodi="http://sodipodi.sourceforge.net/DTD/sodipodi-0.dtd" xmlns:svg="http://www.w3.org/2000/svg"
	 xmlns="http://www.w3.org/2000/svg" xmlns:xlink="http://www.w3.org/1999/xlink" x="0px" y="0px" viewBox="0 0 424 424"
	 style="enable-background:new 0 0 424 424;" xml:space="preserve">
<style type="text/css">
	.st0{fill:none;stroke:#000000;stroke-width:0.5107;}
	.st1{fill:#2E3436;}
	.st2{fill:none;stroke:#000000;stroke-width:0.5305;}
	.st3{fill:none;stroke:#D3D7CF;stroke-width:0.7;stroke-linecap:round;stroke-linejoin:round;stroke-miterlimit:4.5676;}
	.st4{fill:#D3D7CF;stroke:#D3D7CF;stroke-width:0.7;}
	.st5{fill:#AFC6C5;stroke:#AFC6C5;}
	.st6{opacity:0.9;enable-background:new    ;}
	
		.st7{fill:url(#path5486_00000137811590957089517410000010957447486016296865_);stroke:url(#path5486_00000005972603840505771570000017538258590626726556_);stroke-width:9.9996;stroke-linecap:round;stroke-linejoin:round;stroke-miterlimit:3.7774;}
	.st8{fill:#BABDB6;}
	.st9{fill:#CC0000;stroke:#A40000;stroke-width:1.4;stroke-linecap:round;stroke-linejoin:round;stroke-miterlimit:4;}
	.st10{fill:#3465A4;stroke:#204A87;stroke-width:1.4;stroke-linecap:round;stroke-linejoin:round;stroke-miterlimit:4;}
	.st11{fill:url(#path5547_00000112593387601281744160000008664882876264708509_);}
	.st12{fill:url(#path5552_00000175313151886095310680000015228691590486650240_);}
	
		.st13{fill:#F2F2F2;stroke:url(#path5573_00000148620569837075306850000003124871565496773282_);stroke-width:1;stroke-miterlimit:4;}
	
		.st14{fill:#F2F2F2;stroke:url(#path5583_00000134956021812876297060000003706131758840649619_);stroke-width:1;stroke-miterlimit:4;}
	.st15{fill:url(#path5589_00000016054902159722273460000002815897614149403790_);}
	.st16{fill:url(#path5591_00000075153815424643412230000002420378580378613425_);}
	.st17{fill:url(#rect5611_00000113351632363965433150000017763425461231455367_);}
	.st18{fill:url(#rect5635_00000134234307335220782260000011914662575927395752_);}
</style>
<sodipodi:namedview  bordercolor="#666666" borderopacity="1.0" id="base" inkscape:current-layer="layer2" inkscape:cx="173.79666" inkscape:cy="165.24249" inkscape:document-units="px" inkscape:guide-bbox="true" inkscape:pageopacity="0.0" inkscape:pageshadow="2" inkscape:window-height="949" inkscape:window-maximized="1" inkscape:window-width="1280" inkscape:window-x="0" inkscape:window-y="24" inkscape:zoom="0.5" pagecolor="#ffffff" showgrid="false" showguides="true">
	<sodipodi:guide  id="guide2858" orientation="744.09,0" position="-158.04501,-158.04502"></sodipodi:guide>
	<sodipodi:guide  id="guide2860" orientation="744.09,0" position="27.977489,-158.04502"></sodipodi:guide>
	<sodipodi:guide  id="guide2862" orientation="744.09,0" position="213.99999,-158.04502"></sodipodi:guide>
	<sodipodi:guide  id="guide2864" orientation="744.09,0" position="400.02249,-158.04502"></sodipodi:guide>
	<sodipodi:guide  id="guide2866" orientation="744.09,0" position="586.04499,-158.04502"></sodipodi:guide>
	<sodipodi:guide  id="guide2868" orientation="0,744.09" position="-158.04501,-158.04502"></sodipodi:guide>
	<sodipodi:guide  id="guide2870" orientation="0,744.09" position="-158.04501,27.977481"></sodipodi:guide>
	<sodipodi:guide  id="guide2872" orientation="0,744.09" position="-158.04501,213.99998"></sodipodi:guide>
	<sodipodi:guide  id="guide2874" orientation="0,744.09" position="-158.04501,400.02248"></sodipodi:guide>
	<sodipodi:guide  id="guide2876" orientation="0,744.09" position="-158.04501,586.04498"></sodipodi:guide>
</sodipodi:namedview>
<g id="layer1" transform="translate(-158.05 -470.32)" inkscape:groupmode="layer" inkscape:label="Capa 1">
	<path id="path3897" class="st0" d="M572.8,680.4c0,110.9-89.9,200.8-200.8,200.8s-200.8-89.9-200.8-200.8S261.1,479.5,372,479.5
		S572.8,569.4,572.8,680.4z"/>
	<g id="g4853">
		<path id="path3041" d="M371.4,480.4v7.5h1.3v-7.5H371.4z"/>
		<path id="path3059" d="M372.7,880.2v-7.5h-1.3v7.5H372.7z"/>
	</g>
	<path id="path3083" d="M336.7,483.5l1.3,7.4l1.3-0.2l-1.3-7.4L336.7,483.5z"/>
	<path id="path3093" d="M407.4,877.1l-1.3-7.4l-1.3,0.2l1.3,7.4L407.4,877.1z"/>
	<path id="path3105" d="M303,492.7l2.6,7l1.2-0.4l-2.6-7L303,492.7z"/>
	<path id="path3115" d="M441,868l-2.6-7l-1.2,0.4l2.6,7L441,868z"/>
	<path id="path3127" d="M271.5,507.5l3.8,6.5l1.1-0.7l-3.8-6.5L271.5,507.5L271.5,507.5z"/>
	<path id="path3137" d="M472.6,853.1l-3.8-6.5l-1.1,0.7l3.8,6.5L472.6,853.1L472.6,853.1z"/>
	<path id="path3149" d="M243,527.6l4.8,5.7l1-0.8l-4.8-5.7L243,527.6L243,527.6z"/>
	<path id="path3159" d="M501.1,833l-4.8-5.7l-1,0.8l4.8,5.7L501.1,833L501.1,833z"/>
	<path id="path3171" d="M218.5,552.3l5.7,4.8l0.8-1l-5.7-4.8L218.5,552.3L218.5,552.3z"/>
	<path id="path3181" d="M525.6,808.3l-5.7-4.8l-0.8,1l5.7,4.8L525.6,808.3z"/>
	<path id="path3193" d="M198.6,580.9l6.5,3.8l0.7-1.1l-6.5-3.8L198.6,580.9z"/>
	<path id="path3203" d="M545.5,779.7L539,776l-0.7,1.1l6.5,3.8L545.5,779.7z"/>
	<path id="path3215" d="M183.9,612.5l7,2.6l0.4-1.2l-7-2.6L183.9,612.5z"/>
	<path id="path3225" d="M560.1,748.1l-7-2.6l-0.4,1.2l7,2.6L560.1,748.1z"/>
	<path id="path3237" d="M175,646.2l7.4,1.3l0.2-1.3l-7.4-1.3L175,646.2L175,646.2z"/>
	<path id="path3247" d="M569,714.4l-7.4-1.3l-0.2,1.3l7.4,1.3L569,714.4z"/>
	<path id="path3259" d="M172.1,681h7.5v-1.3h-7.5V681z"/>
	<path id="path3269" d="M572,679.7h-7.5v1.3h7.5V679.7z"/>
	<path id="path3281" d="M175.3,715.7l7.4-1.3l-0.2-1.3l-7.4,1.3L175.3,715.7z"/>
	<path id="path3291" d="M568.8,645l-7.4,1.3l0.2,1.3l7.4-1.3L568.8,645z"/>
	<path id="path3303" d="M184.4,749.3l7-2.6l-0.4-1.2l-7,2.6L184.4,749.3L184.4,749.3z"/>
	<path id="path3313" d="M559.7,611.3l-7,2.6l0.4,1.2l7-2.6L559.7,611.3L559.7,611.3z"/>
	<path id="path3325" d="M199.2,780.8l6.5-3.8l-0.7-1.1l-6.5,3.8L199.2,780.8z"/>
	<path id="path3335" d="M544.9,579.8l-6.5,3.8l0.7,1.1l6.5-3.8L544.9,579.8z"/>
	<path id="path3347" d="M219.3,809.3l5.7-4.8l-0.8-1l-5.7,4.8L219.3,809.3z"/>
	<path id="path3357" d="M524.8,551.3l-5.7,4.8l0.8,1l5.7-4.8L524.8,551.3z"/>
	<path id="path3369" d="M244,833.9l4.8-5.7l-1-0.8L243,833L244,833.9L244,833.9z"/>
	<path id="path3379" d="M500,526.7l-4.8,5.7l1,0.8l4.8-5.7L500,526.7L500,526.7z"/>
	<path id="path3391" d="M272.6,853.8l3.8-6.5l-1.1-0.7l-3.8,6.5L272.6,853.8z"/>
	<path id="path3401" d="M471.4,506.9l-3.8,6.5l1.1,0.7l3.8-6.5L471.4,506.9z"/>
	<path id="path3413" d="M304.3,868.4l2.6-7l-1.2-0.4l-2.6,7L304.3,868.4z"/>
	<path id="path3423" d="M439.8,492.2l-2.6,7l1.2,0.4l2.6-7L439.8,492.2z"/>
	<path id="path3435" d="M338,877.3l1.3-7.4l-1.3-0.2l-1.3,7.4L338,877.3z"/>
	<g id="g5289">
		<g id="flowRoot3024" transform="translate(64.152 371.01)">
			<path id="path6300" class="st1" d="M304.7,124.6c0-0.7,0.1-1.3,0.2-1.9c0.1-0.5,0.3-1,0.5-1.3c0.2-0.3,0.4-0.6,0.7-0.8
				c0.3-0.2,0.5-0.3,0.7-0.4c0.2-0.1,0.5-0.1,0.8-0.1c1.9,0,2.8,1.5,2.8,4.5c0,1.4-0.2,2.5-0.7,3.2c-0.5,0.7-1.2,1.1-2.1,1.1
				c-0.9,0-1.6-0.4-2.1-1.1C304.9,127.1,304.7,126,304.7,124.6 M309.2,124.6c0-2.3-0.6-3.4-1.7-3.4c-1.1,0-1.7,1.2-1.7,3.5
				c0,2.3,0.6,3.5,1.7,3.5c0.6,0,1-0.3,1.3-0.9C309,126.7,309.2,125.8,309.2,124.6"/>
		</g>
		<g id="flowRoot3051" transform="matrix(-1 0 0 -1 679.94 989.62)">
			<path id="path6303" class="st1" d="M300.6,122.7h-1.9v-0.8c0.8-0.1,1.3-0.2,1.6-0.4c0.2-0.2,0.5-0.6,0.6-1.3h0.7v8.5h-1.1
				L300.6,122.7"/>
			<path id="path6305" class="st1" d="M308.9,124.2c1,0.5,1.5,1.2,1.5,2.1c0,0.8-0.3,1.4-0.8,1.9c-0.5,0.5-1.2,0.7-2.1,0.7
				s-1.5-0.2-2.1-0.7c-0.5-0.5-0.8-1.1-0.8-1.9c0-0.9,0.5-1.6,1.5-2.1c-0.4-0.3-0.7-0.5-0.9-0.8c-0.2-0.3-0.3-0.6-0.3-1
				c0-0.7,0.2-1.2,0.7-1.6c0.5-0.4,1.1-0.6,1.8-0.6c0.8,0,1.4,0.2,1.8,0.6c0.5,0.4,0.7,1,0.7,1.6c0,0.4-0.1,0.7-0.3,1
				C309.6,123.7,309.3,124,308.9,124.2 M308.5,121.5c-0.3-0.2-0.6-0.4-1.1-0.4c-0.4,0-0.8,0.1-1.1,0.4c-0.3,0.2-0.4,0.6-0.4,1
				c0,0.4,0.1,0.7,0.4,1c0.3,0.2,0.6,0.4,1.1,0.4c0.4,0,0.8-0.1,1.1-0.4c0.3-0.2,0.4-0.6,0.4-1C308.9,122.1,308.8,121.8,308.5,121.5
				 M308.7,125.2c-0.3-0.3-0.8-0.5-1.3-0.5c-0.5,0-1,0.2-1.3,0.5c-0.3,0.3-0.5,0.7-0.5,1.2c0,0.5,0.2,0.9,0.5,1.2
				c0.3,0.3,0.8,0.5,1.3,0.5c0.5,0,1-0.2,1.3-0.5c0.3-0.3,0.5-0.7,0.5-1.2C309.2,125.9,309.1,125.5,308.7,125.2"/>
			<path id="path6307" class="st1" d="M311.4,124.6c0-0.7,0.1-1.3,0.2-1.9c0.1-0.5,0.3-1,0.5-1.3c0.2-0.3,0.4-0.6,0.7-0.8
				c0.3-0.2,0.5-0.3,0.7-0.4c0.2-0.1,0.5-0.1,0.8-0.1c1.9,0,2.8,1.5,2.8,4.5c0,1.4-0.2,2.5-0.7,3.2c-0.5,0.7-1.2,1.1-2.1,1.1
				c-0.9,0-1.6-0.4-2.1-1.1C311.6,127.1,311.4,126,311.4,124.6 M315.8,124.6c0-2.3-0.6-3.4-1.7-3.4c-1.1,0-1.7,1.2-1.7,3.5
				c0,2.3,0.6,3.5,1.7,3.5c0.6,0,1-0.3,1.3-0.9C315.7,126.7,315.8,125.8,315.8,124.6"/>
		</g>
		<g id="flowRoot3075" transform="matrix(.98481 -.17365 .17365 .98481 15.12 429.18)">
			<path id="path6310" class="st1" d="M300.7,121.1c-0.6,0-1,0.2-1.3,0.5c-0.2,0.3-0.3,0.8-0.4,1.3H298c0-1.8,0.9-2.7,2.7-2.7
				c0.8,0,1.4,0.2,1.9,0.6c0.5,0.4,0.7,1,0.7,1.7c0,0.9-0.4,1.5-1.2,1.8c0.5,0.2,0.9,0.4,1.1,0.7c0.2,0.3,0.3,0.7,0.3,1.3
				c0,0.8-0.3,1.5-0.8,1.9c-0.5,0.5-1.2,0.7-2.1,0.7c-1.7,0-2.7-0.9-2.8-2.7h1.1c0,0.6,0.2,1.1,0.5,1.4s0.7,0.4,1.3,0.4
				c0.6,0,1-0.1,1.3-0.4c0.3-0.3,0.5-0.7,0.5-1.3c0-1-0.6-1.5-1.8-1.5l-0.4,0h-0.1v-0.9c0.8,0,1.3-0.1,1.6-0.3
				c0.3-0.2,0.5-0.5,0.5-1c0-0.4-0.1-0.8-0.4-1.1C301.5,121.3,301.2,121.1,300.7,121.1"/>
			<path id="path6312" class="st1" d="M309.9,120.2v1h-3.5l-0.3,2.4c0.5-0.3,1-0.5,1.6-0.5c0.8,0,1.5,0.3,2,0.8
				c0.5,0.5,0.8,1.2,0.8,2c0,0.9-0.3,1.6-0.8,2.2c-0.5,0.6-1.2,0.9-2.1,0.9c-0.3,0-0.6,0-0.9-0.1c-0.3-0.1-0.5-0.2-0.7-0.3
				c-0.2-0.1-0.3-0.2-0.5-0.4c-0.1-0.2-0.3-0.3-0.3-0.4c-0.1-0.1-0.1-0.3-0.2-0.5c-0.1-0.2-0.1-0.3-0.1-0.4c0-0.1,0-0.2-0.1-0.3h1.1
				c0.2,1,0.8,1.4,1.7,1.4c0.6,0,1-0.2,1.4-0.5c0.3-0.4,0.5-0.8,0.5-1.4c0-0.6-0.2-1.1-0.5-1.5c-0.3-0.4-0.8-0.6-1.4-0.6
				c-0.3,0-0.6,0.1-0.8,0.2c-0.2,0.1-0.5,0.3-0.7,0.6h-1l0.6-4.6H309.9"/>
			<path id="path6314" class="st1" d="M311.4,124.6c0-0.7,0.1-1.3,0.2-1.9c0.1-0.5,0.3-1,0.5-1.3c0.2-0.3,0.4-0.6,0.7-0.8
				c0.3-0.2,0.5-0.3,0.7-0.4c0.2-0.1,0.5-0.1,0.8-0.1c1.9,0,2.8,1.5,2.8,4.5c0,1.4-0.2,2.5-0.7,3.2c-0.5,0.7-1.2,1.1-2.1,1.1
				c-0.9,0-1.6-0.4-2.1-1.1C311.6,127.1,311.4,126,311.4,124.6 M315.8,124.6c0-2.3-0.6-3.4-1.7-3.4c-1.1,0-1.7,1.2-1.7,3.5
				c0,2.3,0.6,3.5,1.7,3.5c0.6,0,1-0.3,1.3-0.9C315.7,126.7,315.8,125.8,315.8,124.6"/>
		</g>
		<g id="flowRoot3085" transform="matrix(-.98481 .17365 -.17365 -.98481 728.97 931.46)">
			<path id="path6317" class="st1" d="M300.6,122.7h-1.9v-0.8c0.8-0.1,1.3-0.2,1.6-0.4c0.2-0.2,0.5-0.6,0.6-1.3h0.7v8.5h-1.1
				L300.6,122.7"/>
			<path id="path6319" class="st1" d="M310.4,120.2v0.9c-1,1.3-1.7,2.5-2.3,3.8c-0.6,1.2-0.9,2.5-1.2,3.9h-1.1
				c0.3-1.4,0.7-2.6,1.2-3.7c0.5-1.1,1.3-2.3,2.3-3.8h-4.6v-1H310.4"/>
			<path id="path6321" class="st1" d="M311.4,124.6c0-0.7,0.1-1.3,0.2-1.9c0.1-0.5,0.3-1,0.5-1.3c0.2-0.3,0.4-0.6,0.7-0.8
				c0.3-0.2,0.5-0.3,0.7-0.4c0.2-0.1,0.5-0.1,0.8-0.1c1.9,0,2.8,1.5,2.8,4.5c0,1.4-0.2,2.5-0.7,3.2c-0.5,0.7-1.2,1.1-2.1,1.1
				c-0.9,0-1.6-0.4-2.1-1.1C311.6,127.1,311.4,126,311.4,124.6 M315.8,124.6c0-2.3-0.6-3.4-1.7-3.4c-1.1,0-1.7,1.2-1.7,3.5
				c0,2.3,0.6,3.5,1.7,3.5c0.6,0,1-0.3,1.3-0.9C315.7,126.7,315.8,125.8,315.8,124.6"/>
		</g>
		<g id="flowRoot3097" transform="matrix(.93969 -.34202 .34202 .93969 -23.067 494.97)">
			<path id="path6324" class="st1" d="M300.7,121.1c-0.6,0-1,0.2-1.3,0.5c-0.2,0.3-0.3,0.8-0.4,1.3h-1.1c0-1.8,0.9-2.7,2.7-2.7
				c0.8,0,1.4,0.2,1.9,0.6c0.5,0.4,0.7,1,0.7,1.7c0,0.9-0.4,1.5-1.2,1.8c0.5,0.2,0.9,0.4,1.1,0.7c0.2,0.3,0.3,0.7,0.3,1.3
				c0,0.8-0.3,1.5-0.8,1.9c-0.5,0.5-1.2,0.7-2.1,0.7c-1.7,0-2.7-0.9-2.8-2.7h1.1c0,0.6,0.2,1.1,0.5,1.4s0.7,0.4,1.3,0.4
				c0.6,0,1-0.1,1.3-0.4c0.3-0.3,0.5-0.7,0.5-1.3c0-1-0.6-1.5-1.8-1.5l-0.4,0h-0.1v-0.9c0.8,0,1.3-0.1,1.6-0.3
				c0.3-0.2,0.5-0.5,0.5-1c0-0.4-0.1-0.8-0.4-1.1C301.6,121.3,301.2,121.1,300.7,121.1"/>
			<path id="path6326" class="st1" d="M308.1,126.7h-3.6v-1.1l3.9-5.4h0.8v5.5h1.3v0.9h-1.3v2h-1.1V126.7 M308.1,125.7V122l-2.7,3.7
				H308.1"/>
			<path id="path6328" class="st1" d="M311.3,124.6c0-0.7,0.1-1.3,0.2-1.9c0.1-0.5,0.3-1,0.5-1.3c0.2-0.3,0.4-0.6,0.7-0.8
				c0.3-0.2,0.5-0.3,0.7-0.4c0.2-0.1,0.5-0.1,0.8-0.1c1.9,0,2.8,1.5,2.8,4.5c0,1.4-0.2,2.5-0.7,3.2c-0.5,0.7-1.2,1.1-2.1,1.1
				c-0.9,0-1.6-0.4-2.1-1.1C311.6,127.1,311.3,126,311.3,124.6 M315.8,124.6c0-2.3-0.6-3.4-1.7-3.4c-1.1,0-1.7,1.2-1.7,3.5
				c0,2.3,0.6,3.5,1.7,3.5c0.6,0,1-0.3,1.3-0.9C315.7,126.7,315.8,125.8,315.8,124.6"/>
		</g>
		<g id="flowRoot3107" transform="matrix(-.93969 .34202 -.34202 -.93969 767.16 865.66)">
			<path id="path6331" class="st1" d="M300.6,122.7h-1.9v-0.8c0.8-0.1,1.3-0.2,1.6-0.4c0.2-0.2,0.5-0.6,0.6-1.3h0.7v8.5h-1.1
				L300.6,122.7"/>
			<path id="path6333" class="st1" d="M304.7,124.8c0-0.8,0.1-1.4,0.2-2c0.1-0.6,0.3-1,0.5-1.4c0.2-0.3,0.5-0.6,0.7-0.8
				c0.3-0.2,0.6-0.3,0.8-0.4c0.3-0.1,0.5-0.1,0.8-0.1c0.6,0,1.2,0.2,1.6,0.6c0.4,0.4,0.7,0.9,0.8,1.6h-1.1c-0.1-0.4-0.3-0.7-0.5-0.9
				c-0.2-0.2-0.6-0.3-0.9-0.3c-0.6,0-1.1,0.3-1.4,0.8c-0.3,0.6-0.5,1.3-0.5,2.4c0.5-0.6,1.1-0.9,2-0.9c0.8,0,1.4,0.3,1.9,0.8
				c0.5,0.5,0.7,1.2,0.7,1.9c0,0.8-0.3,1.5-0.8,2.1c-0.5,0.5-1.2,0.8-2,0.8C305.6,129,304.7,127.6,304.7,124.8 M307.6,124.4
				c-0.5,0-0.9,0.2-1.3,0.5c-0.3,0.3-0.5,0.8-0.5,1.3c0,0.5,0.2,1,0.5,1.4c0.3,0.4,0.7,0.5,1.2,0.5c0.5,0,0.9-0.2,1.2-0.5
				c0.3-0.4,0.5-0.8,0.5-1.3c0-0.6-0.1-1-0.4-1.3C308.5,124.5,308.1,124.4,307.6,124.4"/>
			<path id="path6335" class="st1" d="M311.4,124.6c0-0.7,0.1-1.3,0.2-1.9c0.1-0.5,0.3-1,0.5-1.3c0.2-0.3,0.4-0.6,0.7-0.8
				c0.3-0.2,0.5-0.3,0.7-0.4c0.2-0.1,0.5-0.1,0.8-0.1c1.9,0,2.8,1.5,2.8,4.5c0,1.4-0.2,2.5-0.7,3.2c-0.5,0.7-1.2,1.1-2.1,1.1
				c-0.9,0-1.6-0.4-2.1-1.1C311.6,127.1,311.4,126,311.4,124.6 M315.8,124.6c0-2.3-0.6-3.4-1.7-3.4c-1.1,0-1.7,1.2-1.7,3.5
				c0,2.3,0.6,3.5,1.7,3.5c0.6,0,1-0.3,1.3-0.9C315.7,126.7,315.8,125.8,315.8,124.6"/>
		</g>
		<g id="flowRoot3119" transform="matrix(.86603 -0.5 0.5 .86603 -49.249 566.4)">
			<path id="path6338" class="st1" d="M300.7,121.1c-0.6,0-1,0.2-1.3,0.5c-0.2,0.3-0.3,0.8-0.4,1.3H298c0-1.8,0.9-2.7,2.7-2.7
				c0.8,0,1.4,0.2,1.9,0.6c0.5,0.4,0.7,1,0.7,1.7c0,0.9-0.4,1.5-1.2,1.8c0.5,0.2,0.9,0.4,1.1,0.7c0.2,0.3,0.3,0.7,0.3,1.3
				c0,0.8-0.3,1.5-0.8,1.9c-0.5,0.5-1.2,0.7-2.1,0.7c-1.7,0-2.7-0.9-2.8-2.7h1.1c0,0.6,0.2,1.1,0.5,1.4s0.7,0.4,1.3,0.4
				c0.6,0,1-0.1,1.3-0.4c0.3-0.3,0.5-0.7,0.5-1.3c0-1-0.6-1.5-1.8-1.5l-0.4,0h-0.1v-0.9c0.8,0,1.3-0.1,1.6-0.3
				c0.3-0.2,0.5-0.5,0.5-1c0-0.4-0.1-0.8-0.4-1.1C301.5,121.3,301.2,121.1,300.7,121.1"/>
			<path id="path6340" class="st1" d="M307.4,121.1c-0.6,0-1,0.2-1.3,0.5c-0.2,0.3-0.3,0.8-0.4,1.3h-1.1c0-1.8,0.9-2.7,2.7-2.7
				c0.8,0,1.4,0.2,1.9,0.6c0.5,0.4,0.7,1,0.7,1.7c0,0.9-0.4,1.5-1.2,1.8c0.5,0.2,0.9,0.4,1.1,0.7c0.2,0.3,0.3,0.7,0.3,1.3
				c0,0.8-0.3,1.5-0.8,1.9c-0.5,0.5-1.2,0.7-2.1,0.7c-1.7,0-2.7-0.9-2.8-2.7h1.1c0,0.6,0.2,1.1,0.5,1.4c0.3,0.3,0.7,0.4,1.3,0.4
				c0.6,0,1-0.1,1.3-0.4c0.3-0.3,0.5-0.7,0.5-1.3c0-1-0.6-1.5-1.8-1.5l-0.4,0h-0.1v-0.9c0.8,0,1.3-0.1,1.6-0.3
				c0.3-0.2,0.5-0.5,0.5-1c0-0.4-0.1-0.8-0.4-1.1C308.2,121.3,307.9,121.1,307.4,121.1"/>
			<path id="path6342" class="st1" d="M311.4,124.6c0-0.7,0.1-1.3,0.2-1.9c0.1-0.5,0.3-1,0.5-1.3c0.2-0.3,0.4-0.6,0.7-0.8
				c0.3-0.2,0.5-0.3,0.7-0.4c0.2-0.1,0.5-0.1,0.8-0.1c1.9,0,2.8,1.5,2.8,4.5c0,1.4-0.2,2.5-0.7,3.2c-0.5,0.7-1.2,1.1-2.1,1.1
				c-0.9,0-1.6-0.4-2.1-1.1C311.6,127.1,311.4,126,311.4,124.6 M315.8,124.6c0-2.3-0.6-3.4-1.7-3.4c-1.1,0-1.7,1.2-1.7,3.5
				c0,2.3,0.6,3.5,1.7,3.5c0.6,0,1-0.3,1.3-0.9C315.7,126.7,315.8,125.8,315.8,124.6"/>
		</g>
		<g id="flowRoot3129" transform="matrix(-.86603 0.5 -0.5 -.86603 793.34 794.23)">
			<path id="path6345" class="st1" d="M300.6,122.7h-1.9v-0.8c0.8-0.1,1.3-0.2,1.6-0.4c0.2-0.2,0.5-0.6,0.6-1.3h0.7v8.5h-1.1
				L300.6,122.7"/>
			<path id="path6347" class="st1" d="M309.9,120.2v1h-3.5l-0.3,2.4c0.5-0.3,1-0.5,1.6-0.5c0.8,0,1.5,0.3,2,0.8
				c0.5,0.5,0.8,1.2,0.8,2c0,0.9-0.3,1.6-0.8,2.2c-0.5,0.6-1.2,0.9-2.1,0.9c-0.3,0-0.6,0-0.9-0.1c-0.3-0.1-0.5-0.2-0.7-0.3
				c-0.2-0.1-0.3-0.2-0.5-0.4c-0.1-0.2-0.3-0.3-0.3-0.4c-0.1-0.1-0.1-0.3-0.2-0.5c-0.1-0.2-0.1-0.3-0.1-0.4c0-0.1,0-0.2-0.1-0.3h1.1
				c0.2,1,0.8,1.4,1.7,1.4c0.6,0,1-0.2,1.4-0.5c0.3-0.4,0.5-0.8,0.5-1.4c0-0.6-0.2-1.1-0.5-1.5c-0.3-0.4-0.8-0.6-1.4-0.6
				c-0.3,0-0.6,0.1-0.8,0.2c-0.2,0.1-0.5,0.3-0.7,0.6h-1l0.6-4.6H309.9"/>
			<path id="path6349" class="st1" d="M311.4,124.6c0-0.7,0.1-1.3,0.2-1.9c0.1-0.5,0.3-1,0.5-1.3c0.2-0.3,0.4-0.6,0.7-0.8
				c0.3-0.2,0.5-0.3,0.7-0.4c0.2-0.1,0.5-0.1,0.8-0.1c1.9,0,2.8,1.5,2.8,4.5c0,1.4-0.2,2.5-0.7,3.2c-0.5,0.7-1.2,1.1-2.1,1.1
				c-0.9,0-1.6-0.4-2.1-1.1C311.6,127.1,311.4,126,311.4,124.6 M315.8,124.6c0-2.3-0.6-3.4-1.7-3.4c-1.1,0-1.7,1.2-1.7,3.5
				c0,2.3,0.6,3.5,1.7,3.5c0.6,0,1-0.3,1.3-0.9C315.7,126.7,315.8,125.8,315.8,124.6"/>
		</g>
		<g id="flowRoot3141" transform="matrix(.76604 -.64279 .64279 .76604 -62.63 641.29)">
			<path id="path6352" class="st1" d="M300.7,121.1c-0.6,0-1,0.2-1.3,0.5c-0.2,0.3-0.3,0.8-0.4,1.3H298c0-1.8,0.9-2.7,2.7-2.7
				c0.8,0,1.4,0.2,1.9,0.6c0.5,0.4,0.7,1,0.7,1.7c0,0.9-0.4,1.5-1.2,1.8c0.5,0.2,0.9,0.4,1.1,0.7c0.2,0.3,0.3,0.7,0.3,1.3
				c0,0.8-0.3,1.5-0.8,1.9c-0.5,0.5-1.2,0.7-2.1,0.7c-1.7,0-2.7-0.9-2.8-2.7h1.1c0,0.6,0.2,1.1,0.5,1.4s0.7,0.4,1.3,0.4
				c0.6,0,1-0.1,1.3-0.4c0.3-0.3,0.5-0.7,0.5-1.3c0-1-0.6-1.5-1.8-1.5l-0.4,0h-0.1v-0.9c0.8,0,1.3-0.1,1.6-0.3
				c0.3-0.2,0.5-0.5,0.5-1c0-0.4-0.1-0.8-0.4-1.1C301.5,121.3,301.2,121.1,300.7,121.1"/>
			<path id="path6354" class="st1" d="M304.8,123.2c0.1-2,1-3,2.8-3c0.8,0,1.5,0.2,2,0.7c0.5,0.5,0.8,1.1,0.8,1.8
				c0,1.1-0.6,1.9-1.8,2.6l-1.2,0.6c-0.5,0.3-0.9,0.6-1.1,0.8c-0.2,0.3-0.4,0.6-0.4,0.9h4.5v1h-5.7c0-0.9,0.2-1.7,0.6-2.2
				c0.3-0.5,0.9-1,1.8-1.5l1.1-0.6c0.8-0.4,1.2-1,1.2-1.7c0-0.5-0.2-0.8-0.5-1.1c-0.3-0.3-0.7-0.5-1.2-0.5c-1.1,0-1.6,0.7-1.7,2
				L304.8,123.2"/>
			<path id="path6356" class="st1" d="M311.4,124.6c0-0.7,0.1-1.3,0.2-1.9c0.1-0.5,0.3-1,0.5-1.3c0.2-0.3,0.4-0.6,0.7-0.8
				c0.3-0.2,0.5-0.3,0.7-0.4c0.2-0.1,0.5-0.1,0.8-0.1c1.9,0,2.8,1.5,2.8,4.5c0,1.4-0.2,2.5-0.7,3.2c-0.5,0.7-1.2,1.1-2.1,1.1
				c-0.9,0-1.6-0.4-2.1-1.1C311.6,127.1,311.4,126,311.4,124.6 M315.8,124.6c0-2.3-0.6-3.4-1.7-3.4c-1.1,0-1.7,1.2-1.7,3.5
				c0,2.3,0.6,3.5,1.7,3.5c0.6,0,1-0.3,1.3-0.9C315.7,126.7,315.8,125.8,315.8,124.6"/>
		</g>
		<g id="flowRoot3151" transform="matrix(-.76604 .64279 -.64279 -.76604 806.72 719.35)">
			<path id="path6359" class="st1" d="M300.6,122.7h-1.9v-0.8c0.8-0.1,1.3-0.2,1.6-0.4c0.2-0.2,0.5-0.6,0.6-1.3h0.7v8.5h-1.1
				L300.6,122.7"/>
			<path id="path6361" class="st1" d="M308.1,126.7h-3.6v-1.1l3.9-5.4h0.8v5.5h1.3v0.9h-1.3v2h-1.1V126.7 M308.1,125.7V122l-2.7,3.7
				H308.1"/>
			<path id="path6363" class="st1" d="M311.3,124.6c0-0.7,0.1-1.3,0.2-1.9c0.1-0.5,0.3-1,0.5-1.3c0.2-0.3,0.4-0.6,0.7-0.8
				c0.3-0.2,0.5-0.3,0.7-0.4c0.2-0.1,0.5-0.1,0.8-0.1c1.9,0,2.8,1.5,2.8,4.5c0,1.4-0.2,2.5-0.7,3.2c-0.5,0.7-1.2,1.1-2.1,1.1
				c-0.9,0-1.6-0.4-2.1-1.1C311.6,127.1,311.3,126,311.3,124.6 M315.8,124.6c0-2.3-0.6-3.4-1.7-3.4c-1.1,0-1.7,1.2-1.7,3.5
				c0,2.3,0.6,3.5,1.7,3.5c0.6,0,1-0.3,1.3-0.9C315.7,126.7,315.8,125.8,315.8,124.6"/>
		</g>
		<g id="flowRoot3163" transform="matrix(.64279 -.76604 .76604 .64279 -62.804 717.36)">
			<path id="path6366" class="st1" d="M300.7,121.1c-0.6,0-1,0.2-1.3,0.5c-0.2,0.3-0.3,0.8-0.4,1.3H298c0-1.8,0.9-2.7,2.7-2.7
				c0.8,0,1.4,0.2,1.9,0.6c0.5,0.4,0.7,1,0.7,1.7c0,0.9-0.4,1.5-1.2,1.8c0.5,0.2,0.9,0.4,1.1,0.7c0.2,0.3,0.3,0.7,0.3,1.3
				c0,0.8-0.3,1.5-0.8,1.9c-0.5,0.5-1.2,0.7-2.1,0.7c-1.7,0-2.7-0.9-2.8-2.7h1.1c0,0.6,0.2,1.1,0.5,1.4s0.7,0.4,1.3,0.4
				c0.6,0,1-0.1,1.3-0.4c0.3-0.3,0.5-0.7,0.5-1.3c0-1-0.6-1.5-1.8-1.5l-0.4,0h-0.1v-0.9c0.8,0,1.3-0.1,1.6-0.3
				c0.3-0.2,0.5-0.5,0.5-1c0-0.4-0.1-0.8-0.4-1.1C301.5,121.3,301.2,121.1,300.7,121.1"/>
			<path id="path6368" class="st1" d="M307.3,122.7h-1.9v-0.8c0.8-0.1,1.3-0.2,1.6-0.4c0.2-0.2,0.5-0.6,0.6-1.3h0.7v8.5h-1.1
				L307.3,122.7"/>
			<path id="path6370" class="st1" d="M311.4,124.6c0-0.7,0.1-1.3,0.2-1.9c0.1-0.5,0.3-1,0.5-1.3c0.2-0.3,0.4-0.6,0.7-0.8
				c0.3-0.2,0.5-0.3,0.7-0.4c0.2-0.1,0.5-0.1,0.8-0.1c1.9,0,2.8,1.5,2.8,4.5c0,1.4-0.2,2.5-0.7,3.2c-0.5,0.7-1.2,1.1-2.1,1.1
				c-0.9,0-1.6-0.4-2.1-1.1C311.6,127.1,311.4,126,311.4,124.6 M315.8,124.6c0-2.3-0.6-3.4-1.7-3.4c-1.1,0-1.7,1.2-1.7,3.5
				c0,2.3,0.6,3.5,1.7,3.5c0.6,0,1-0.3,1.3-0.9C315.7,126.7,315.8,125.8,315.8,124.6"/>
		</g>
		<g id="flowRoot3173" transform="matrix(-.64279 .76604 -.76604 -.64279 806.89 643.27)">
			<path id="path6373" class="st1" d="M300.6,122.7h-1.9v-0.8c0.8-0.1,1.3-0.2,1.6-0.4c0.2-0.2,0.5-0.6,0.6-1.3h0.7v8.5h-1.1
				L300.6,122.7"/>
			<path id="path6375" class="st1" d="M307.4,121.1c-0.6,0-1,0.2-1.3,0.5c-0.2,0.3-0.3,0.8-0.4,1.3h-1.1c0-1.8,0.9-2.7,2.7-2.7
				c0.8,0,1.4,0.2,1.9,0.6c0.5,0.4,0.7,1,0.7,1.7c0,0.9-0.4,1.5-1.2,1.8c0.5,0.2,0.9,0.4,1.1,0.7c0.2,0.3,0.3,0.7,0.3,1.3
				c0,0.8-0.3,1.5-0.8,1.9c-0.5,0.5-1.2,0.7-2.1,0.7c-1.7,0-2.7-0.9-2.8-2.7h1.1c0,0.6,0.2,1.1,0.5,1.4c0.3,0.3,0.7,0.4,1.3,0.4
				c0.6,0,1-0.1,1.3-0.4c0.3-0.3,0.5-0.7,0.5-1.3c0-1-0.6-1.5-1.8-1.5l-0.4,0h-0.1v-0.9c0.8,0,1.3-0.1,1.6-0.3
				c0.3-0.2,0.5-0.5,0.5-1c0-0.4-0.1-0.8-0.4-1.1C308.2,121.3,307.9,121.1,307.4,121.1"/>
			<path id="path6377" class="st1" d="M311.4,124.6c0-0.7,0.1-1.3,0.2-1.9c0.1-0.5,0.3-1,0.5-1.3c0.2-0.3,0.4-0.6,0.7-0.8
				c0.3-0.2,0.5-0.3,0.7-0.4c0.2-0.1,0.5-0.1,0.8-0.1c1.9,0,2.8,1.5,2.8,4.5c0,1.4-0.2,2.5-0.7,3.2c-0.5,0.7-1.2,1.1-2.1,1.1
				c-0.9,0-1.6-0.4-2.1-1.1C311.6,127.1,311.4,126,311.4,124.6 M315.8,124.6c0-2.3-0.6-3.4-1.7-3.4c-1.1,0-1.7,1.2-1.7,3.5
				c0,2.3,0.6,3.5,1.7,3.5c0.6,0,1-0.3,1.3-0.9C315.7,126.7,315.8,125.8,315.8,124.6"/>
		</g>
		<g id="flowRoot3185" transform="matrix(0.5 -.86603 .86603 0.5 -49.765 792.31)">
			<path id="path6380" class="st1" d="M300.7,121.1c-0.6,0-1,0.2-1.3,0.5c-0.2,0.3-0.3,0.8-0.4,1.3H298c0-1.8,0.9-2.7,2.7-2.7
				c0.8,0,1.4,0.2,1.9,0.6c0.5,0.4,0.7,1,0.7,1.7c0,0.9-0.4,1.5-1.2,1.8c0.5,0.2,0.9,0.4,1.1,0.7c0.2,0.3,0.3,0.7,0.3,1.3
				c0,0.8-0.3,1.5-0.8,1.9c-0.5,0.5-1.2,0.7-2.1,0.7c-1.7,0-2.7-0.9-2.8-2.7h1.1c0,0.6,0.2,1.1,0.5,1.4s0.7,0.4,1.3,0.4
				c0.6,0,1-0.1,1.3-0.4c0.3-0.3,0.5-0.7,0.5-1.3c0-1-0.6-1.5-1.8-1.5l-0.4,0h-0.1v-0.9c0.8,0,1.3-0.1,1.6-0.3
				c0.3-0.2,0.5-0.5,0.5-1c0-0.4-0.1-0.8-0.4-1.1C301.5,121.3,301.2,121.1,300.7,121.1"/>
			<path id="path6382" class="st1" d="M304.7,124.6c0-0.7,0.1-1.3,0.2-1.9c0.1-0.5,0.3-1,0.5-1.3c0.2-0.3,0.4-0.6,0.7-0.8
				c0.3-0.2,0.5-0.3,0.7-0.4c0.2-0.1,0.5-0.1,0.8-0.1c1.9,0,2.8,1.5,2.8,4.5c0,1.4-0.2,2.5-0.7,3.2c-0.5,0.7-1.2,1.1-2.1,1.1
				c-0.9,0-1.6-0.4-2.1-1.1C304.9,127.1,304.7,126,304.7,124.6 M309.2,124.6c0-2.3-0.6-3.4-1.7-3.4c-1.1,0-1.7,1.2-1.7,3.5
				c0,2.3,0.6,3.5,1.7,3.5c0.6,0,1-0.3,1.3-0.9C309,126.7,309.2,125.8,309.2,124.6"/>
			<path id="path6384" class="st1" d="M311.4,124.6c0-0.7,0.1-1.3,0.2-1.9c0.1-0.5,0.3-1,0.5-1.3c0.2-0.3,0.4-0.6,0.7-0.8
				c0.3-0.2,0.5-0.3,0.7-0.4c0.2-0.1,0.5-0.1,0.8-0.1c1.9,0,2.8,1.5,2.8,4.5c0,1.4-0.2,2.5-0.7,3.2c-0.5,0.7-1.2,1.1-2.1,1.1
				c-0.9,0-1.6-0.4-2.1-1.1C311.6,127.1,311.4,126,311.4,124.6 M315.8,124.6c0-2.3-0.6-3.4-1.7-3.4c-1.1,0-1.7,1.2-1.7,3.5
				c0,2.3,0.6,3.5,1.7,3.5c0.6,0,1-0.3,1.3-0.9C315.7,126.7,315.8,125.8,315.8,124.6"/>
		</g>
		<g id="flowRoot3195" transform="matrix(-0.5 .86603 -.86603 -0.5 793.86 568.33)">
			<path id="path6387" class="st1" d="M300.6,122.7h-1.9v-0.8c0.8-0.1,1.3-0.2,1.6-0.4c0.2-0.2,0.5-0.6,0.6-1.3h0.7v8.5h-1.1
				L300.6,122.7"/>
			<path id="path6389" class="st1" d="M304.8,123.2c0.1-2,1-3,2.8-3c0.8,0,1.5,0.2,2,0.7c0.5,0.5,0.8,1.1,0.8,1.8
				c0,1.1-0.6,1.9-1.8,2.6l-1.2,0.6c-0.5,0.3-0.9,0.6-1.1,0.8c-0.2,0.3-0.4,0.6-0.4,0.9h4.5v1h-5.7c0-0.9,0.2-1.7,0.6-2.2
				c0.3-0.5,0.9-1,1.8-1.5l1.1-0.6c0.8-0.4,1.2-1,1.2-1.7c0-0.5-0.2-0.8-0.5-1.1c-0.3-0.3-0.7-0.5-1.2-0.5c-1.1,0-1.6,0.7-1.7,2
				L304.8,123.2"/>
			<path id="path6391" class="st1" d="M311.4,124.6c0-0.7,0.1-1.3,0.2-1.9c0.1-0.5,0.3-1,0.5-1.3c0.2-0.3,0.4-0.6,0.7-0.8
				c0.3-0.2,0.5-0.3,0.7-0.4c0.2-0.1,0.5-0.1,0.8-0.1c1.9,0,2.8,1.5,2.8,4.5c0,1.4-0.2,2.5-0.7,3.2c-0.5,0.7-1.2,1.1-2.1,1.1
				c-0.9,0-1.6-0.4-2.1-1.1C311.6,127.1,311.4,126,311.4,124.6 M315.8,124.6c0-2.3-0.6-3.4-1.7-3.4c-1.1,0-1.7,1.2-1.7,3.5
				c0,2.3,0.6,3.5,1.7,3.5c0.6,0,1-0.3,1.3-0.9C315.7,126.7,315.8,125.8,315.8,124.6"/>
		</g>
		<g id="flowRoot3207" transform="matrix(.34202 -.93969 .93969 .34202 -23.91 863.85)">
			<path id="path6394" class="st1" d="M298.1,123.2c0.1-2,1-3,2.8-3c0.8,0,1.5,0.2,2,0.7c0.5,0.5,0.8,1.1,0.8,1.8
				c0,1.1-0.6,1.9-1.8,2.6l-1.2,0.6c-0.5,0.3-0.9,0.6-1.1,0.8c-0.2,0.3-0.4,0.6-0.4,0.9h4.5v1h-5.7c0-0.9,0.2-1.7,0.6-2.2
				c0.3-0.5,0.9-1,1.8-1.5l1.1-0.6c0.8-0.4,1.2-1,1.2-1.7c0-0.5-0.2-0.8-0.5-1.1c-0.3-0.3-0.7-0.5-1.2-0.5c-1.1,0-1.6,0.7-1.7,2
				L298.1,123.2"/>
			<path id="path6396" class="st1" d="M310.3,124.4c0,0.8-0.1,1.4-0.2,2c-0.1,0.6-0.3,1-0.5,1.3c-0.2,0.3-0.4,0.6-0.7,0.8
				c-0.3,0.2-0.5,0.3-0.8,0.4s-0.5,0.1-0.8,0.1c-0.6,0-1.2-0.2-1.6-0.6c-0.4-0.4-0.7-0.9-0.8-1.6h1.1c0.1,0.4,0.3,0.7,0.5,0.9
				s0.6,0.3,0.9,0.3c0.6,0,1.1-0.3,1.4-0.8c0.3-0.6,0.5-1.4,0.5-2.4c-0.5,0.6-1.2,0.9-1.9,0.9c-0.8,0-1.4-0.3-1.9-0.8
				c-0.5-0.5-0.7-1.2-0.7-1.9c0-0.8,0.3-1.5,0.8-2.1c0.5-0.5,1.2-0.8,2-0.8C309.3,120.2,310.3,121.6,310.3,124.4 M307.4,121.1
				c-0.5,0-0.9,0.2-1.2,0.5c-0.3,0.4-0.5,0.8-0.5,1.3c0,0.6,0.1,1,0.4,1.4c0.3,0.3,0.7,0.5,1.2,0.5c0.5,0,0.9-0.2,1.3-0.5
				c0.3-0.3,0.5-0.8,0.5-1.3c0-0.6-0.2-1-0.5-1.4C308.3,121.3,307.9,121.1,307.4,121.1"/>
			<path id="path6398" class="st1" d="M311.3,124.6c0-0.7,0.1-1.3,0.2-1.9c0.1-0.5,0.3-1,0.5-1.3c0.2-0.3,0.4-0.6,0.7-0.8
				c0.3-0.2,0.5-0.3,0.7-0.4c0.2-0.1,0.5-0.1,0.8-0.1c1.9,0,2.8,1.5,2.8,4.5c0,1.4-0.2,2.5-0.7,3.2c-0.5,0.7-1.2,1.1-2.1,1.1
				c-0.9,0-1.6-0.4-2.1-1.1C311.6,127.1,311.3,126,311.3,124.6 M315.8,124.6c0-2.3-0.6-3.4-1.7-3.4c-1.1,0-1.7,1.2-1.7,3.5
				c0,2.3,0.6,3.5,1.7,3.5c0.6,0,1-0.3,1.3-0.9C315.7,126.7,315.8,125.8,315.8,124.6"/>
		</g>
		<g id="flowRoot3217" transform="matrix(-.34202 .93969 -.93969 -.34202 768 496.78)">
			<path id="path6401" class="st1" d="M300.6,122.7h-1.9v-0.8c0.8-0.1,1.3-0.2,1.6-0.4c0.2-0.2,0.5-0.6,0.6-1.3h0.7v8.5h-1.1
				L300.6,122.7"/>
			<path id="path6403" class="st1" d="M307.3,122.7h-1.9v-0.8c0.8-0.1,1.3-0.2,1.6-0.4c0.2-0.2,0.5-0.6,0.6-1.3h0.7v8.5h-1.1
				L307.3,122.7"/>
			<path id="path6405" class="st1" d="M311.4,124.6c0-0.7,0.1-1.3,0.2-1.9c0.1-0.5,0.3-1,0.5-1.3c0.2-0.3,0.4-0.6,0.7-0.8
				c0.3-0.2,0.5-0.3,0.7-0.4c0.2-0.1,0.5-0.1,0.8-0.1c1.9,0,2.8,1.5,2.8,4.5c0,1.4-0.2,2.5-0.7,3.2c-0.5,0.7-1.2,1.1-2.1,1.1
				c-0.9,0-1.6-0.4-2.1-1.1C311.6,127.1,311.4,126,311.4,124.6 M315.8,124.6c0-2.3-0.6-3.4-1.7-3.4c-1.1,0-1.7,1.2-1.7,3.5
				c0,2.3,0.6,3.5,1.7,3.5c0.6,0,1-0.3,1.3-0.9C315.7,126.7,315.8,125.8,315.8,124.6"/>
		</g>
		<g id="flowRoot3229" transform="matrix(.17365 -.98481 .98481 .17365 13.976 929.82)">
			<path id="path6408" class="st1" d="M298.1,123.2c0.1-2,1-3,2.8-3c0.8,0,1.5,0.2,2,0.7c0.5,0.5,0.8,1.1,0.8,1.8
				c0,1.1-0.6,1.9-1.8,2.6l-1.2,0.6c-0.5,0.3-0.9,0.6-1.1,0.8c-0.2,0.3-0.4,0.6-0.4,0.9h4.5v1h-5.7c0-0.9,0.2-1.7,0.6-2.2
				c0.3-0.5,0.9-1,1.8-1.5l1.1-0.6c0.8-0.4,1.2-1,1.2-1.7c0-0.5-0.2-0.8-0.5-1.1c-0.3-0.3-0.7-0.5-1.2-0.5c-1.1,0-1.6,0.7-1.7,2
				L298.1,123.2"/>
			<path id="path6410" class="st1" d="M308.9,124.2c1,0.5,1.5,1.2,1.5,2.1c0,0.8-0.3,1.4-0.8,1.9c-0.5,0.5-1.2,0.7-2.1,0.7
				s-1.5-0.2-2.1-0.7c-0.5-0.5-0.8-1.1-0.8-1.9c0-0.9,0.5-1.6,1.5-2.1c-0.4-0.3-0.7-0.5-0.9-0.8c-0.2-0.3-0.3-0.6-0.3-1
				c0-0.7,0.2-1.2,0.7-1.6c0.5-0.4,1.1-0.6,1.8-0.6c0.8,0,1.4,0.2,1.8,0.6c0.5,0.4,0.7,1,0.7,1.6c0,0.4-0.1,0.7-0.3,1
				C309.6,123.7,309.3,124,308.9,124.2 M308.5,121.5c-0.3-0.2-0.6-0.4-1.1-0.4c-0.4,0-0.8,0.1-1.1,0.4c-0.3,0.2-0.4,0.6-0.4,1
				c0,0.4,0.1,0.7,0.4,1c0.3,0.2,0.6,0.4,1.1,0.4c0.4,0,0.8-0.1,1.1-0.4c0.3-0.2,0.4-0.6,0.4-1C308.9,122.1,308.8,121.8,308.5,121.5
				 M308.7,125.2c-0.3-0.3-0.8-0.5-1.3-0.5c-0.5,0-1,0.2-1.3,0.5c-0.3,0.3-0.5,0.7-0.5,1.2c0,0.5,0.2,0.9,0.5,1.2
				c0.3,0.3,0.8,0.5,1.3,0.5c0.5,0,1-0.2,1.3-0.5c0.3-0.3,0.5-0.7,0.5-1.2C309.2,125.9,309.1,125.5,308.7,125.2"/>
			<path id="path6412" class="st1" d="M311.4,124.6c0-0.7,0.1-1.3,0.2-1.9c0.1-0.5,0.3-1,0.5-1.3c0.2-0.3,0.4-0.6,0.7-0.8
				c0.3-0.2,0.5-0.3,0.7-0.4c0.2-0.1,0.5-0.1,0.8-0.1c1.9,0,2.8,1.5,2.8,4.5c0,1.4-0.2,2.5-0.7,3.2c-0.5,0.7-1.2,1.1-2.1,1.1
				c-0.9,0-1.6-0.4-2.1-1.1C311.6,127.1,311.4,126,311.4,124.6 M315.8,124.6c0-2.3-0.6-3.4-1.7-3.4c-1.1,0-1.7,1.2-1.7,3.5
				c0,2.3,0.6,3.5,1.7,3.5c0.6,0,1-0.3,1.3-0.9C315.7,126.7,315.8,125.8,315.8,124.6"/>
		</g>
		<g id="flowRoot3239" transform="matrix(-.17365 .98481 -.98481 -.17365 730.11 430.81)">
			<path id="path6415" class="st1" d="M300.6,122.7h-1.9v-0.8c0.8-0.1,1.3-0.2,1.6-0.4c0.2-0.2,0.5-0.6,0.6-1.3h0.7v8.5h-1.1
				L300.6,122.7"/>
			<path id="path6417" class="st1" d="M304.7,124.6c0-0.7,0.1-1.3,0.2-1.9c0.1-0.5,0.3-1,0.5-1.3c0.2-0.3,0.4-0.6,0.7-0.8
				c0.3-0.2,0.5-0.3,0.7-0.4c0.2-0.1,0.5-0.1,0.8-0.1c1.9,0,2.8,1.5,2.8,4.5c0,1.4-0.2,2.5-0.7,3.2c-0.5,0.7-1.2,1.1-2.1,1.1
				c-0.9,0-1.6-0.4-2.1-1.1C304.9,127.1,304.7,126,304.7,124.6 M309.2,124.6c0-2.3-0.6-3.4-1.7-3.4c-1.1,0-1.7,1.2-1.7,3.5
				c0,2.3,0.6,3.5,1.7,3.5c0.6,0,1-0.3,1.3-0.9C309,126.7,309.2,125.8,309.2,124.6"/>
			<path id="path6419" class="st1" d="M311.4,124.6c0-0.7,0.1-1.3,0.2-1.9c0.1-0.5,0.3-1,0.5-1.3c0.2-0.3,0.4-0.6,0.7-0.8
				c0.3-0.2,0.5-0.3,0.7-0.4c0.2-0.1,0.5-0.1,0.8-0.1c1.9,0,2.8,1.5,2.8,4.5c0,1.4-0.2,2.5-0.7,3.2c-0.5,0.7-1.2,1.1-2.1,1.1
				c-0.9,0-1.6-0.4-2.1-1.1C311.6,127.1,311.4,126,311.4,124.6 M315.8,124.6c0-2.3-0.6-3.4-1.7-3.4c-1.1,0-1.7,1.2-1.7,3.5
				c0,2.3,0.6,3.5,1.7,3.5c0.6,0,1-0.3,1.3-0.9C315.7,126.7,315.8,125.8,315.8,124.6"/>
		</g>
		<g id="flowRoot3251" transform="matrix(-1.8612e-8 -1 1 -1.8612e-8 62.742 988.21)">
			<path id="path6422" class="st1" d="M298.1,123.2c0.1-2,1-3,2.8-3c0.8,0,1.5,0.2,2,0.7c0.5,0.5,0.8,1.1,0.8,1.8
				c0,1.1-0.6,1.9-1.8,2.6l-1.2,0.6c-0.5,0.3-0.9,0.6-1.1,0.8c-0.2,0.3-0.4,0.6-0.4,0.9h4.5v1h-5.7c0-0.9,0.2-1.7,0.6-2.2
				c0.3-0.5,0.9-1,1.8-1.5l1.1-0.6c0.8-0.4,1.2-1,1.2-1.7c0-0.5-0.2-0.8-0.5-1.1c-0.3-0.3-0.7-0.5-1.2-0.5c-1.1,0-1.6,0.7-1.7,2
				L298.1,123.2"/>
			<path id="path6424" class="st1" d="M310.4,120.2v0.9c-1,1.3-1.7,2.5-2.3,3.8c-0.6,1.2-0.9,2.5-1.2,3.9h-1.1
				c0.3-1.4,0.7-2.6,1.2-3.7c0.5-1.1,1.3-2.3,2.3-3.8h-4.6v-1H310.4"/>
			<path id="path6426" class="st1" d="M311.4,124.6c0-0.7,0.1-1.3,0.2-1.9c0.1-0.5,0.3-1,0.5-1.3c0.2-0.3,0.4-0.6,0.7-0.8
				c0.3-0.2,0.5-0.3,0.7-0.4c0.2-0.1,0.5-0.1,0.8-0.1c1.9,0,2.8,1.5,2.8,4.5c0,1.4-0.2,2.5-0.7,3.2c-0.5,0.7-1.2,1.1-2.1,1.1
				c-0.9,0-1.6-0.4-2.1-1.1C311.6,127.1,311.4,126,311.4,124.6 M315.8,124.6c0-2.3-0.6-3.4-1.7-3.4c-1.1,0-1.7,1.2-1.7,3.5
				c0,2.3,0.6,3.5,1.7,3.5c0.6,0,1-0.3,1.3-0.9C315.7,126.7,315.8,125.8,315.8,124.6"/>
		</g>
		<g id="flowRoot3261" transform="matrix(1.8612e-8 1 -1 1.8612e-8 681.35 372.42)">
			<path id="path6429" class="st1" d="M306.9,124.4c0,0.8-0.1,1.4-0.2,2c-0.1,0.6-0.3,1-0.5,1.3c-0.2,0.3-0.4,0.6-0.7,0.8
				c-0.3,0.2-0.5,0.3-0.8,0.4s-0.5,0.1-0.8,0.1c-0.6,0-1.2-0.2-1.6-0.6c-0.4-0.4-0.7-0.9-0.8-1.6h1.1c0.1,0.4,0.3,0.7,0.5,0.9
				s0.6,0.3,0.9,0.3c0.6,0,1.1-0.3,1.4-0.8c0.3-0.6,0.5-1.4,0.5-2.4c-0.5,0.6-1.2,0.9-1.9,0.9c-0.8,0-1.4-0.3-1.9-0.8
				c-0.5-0.5-0.7-1.2-0.7-1.9c0-0.8,0.3-1.5,0.8-2.1c0.5-0.5,1.2-0.8,2-0.8C306,120.2,306.9,121.6,306.9,124.4 M304.1,121.1
				c-0.5,0-0.9,0.2-1.2,0.5c-0.3,0.4-0.5,0.8-0.5,1.3c0,0.6,0.1,1,0.4,1.4c0.3,0.3,0.7,0.5,1.2,0.5c0.5,0,0.9-0.2,1.3-0.5
				c0.3-0.3,0.5-0.8,0.5-1.3c0-0.6-0.2-1-0.5-1.4C305,121.3,304.6,121.1,304.1,121.1"/>
			<path id="path6431" class="st1" d="M308,124.6c0-0.7,0.1-1.3,0.2-1.9c0.1-0.5,0.3-1,0.5-1.3c0.2-0.3,0.4-0.6,0.7-0.8
				c0.3-0.2,0.5-0.3,0.7-0.4c0.2-0.1,0.5-0.1,0.8-0.1c1.9,0,2.8,1.5,2.8,4.5c0,1.4-0.2,2.5-0.7,3.2c-0.5,0.7-1.2,1.1-2.1,1.1
				c-0.9,0-1.6-0.4-2.1-1.1C308.2,127.1,308,126,308,124.6 M312.5,124.6c0-2.3-0.6-3.4-1.7-3.4c-1.1,0-1.7,1.2-1.7,3.5
				c0,2.3,0.6,3.5,1.7,3.5c0.6,0,1-0.3,1.3-0.9C312.3,126.7,312.5,125.8,312.5,124.6"/>
		</g>
		<g id="flowRoot3273" transform="matrix(-.17365 -.98481 .98481 -.17365 120.91 1037.2)">
			<path id="path6434" class="st1" d="M298.1,123.2c0.1-2,1-3,2.8-3c0.8,0,1.5,0.2,2,0.7c0.5,0.5,0.8,1.1,0.8,1.8
				c0,1.1-0.6,1.9-1.8,2.6l-1.2,0.6c-0.5,0.3-0.9,0.6-1.1,0.8c-0.2,0.3-0.4,0.6-0.4,0.9h4.5v1h-5.7c0-0.9,0.2-1.7,0.6-2.2
				c0.3-0.5,0.9-1,1.8-1.5l1.1-0.6c0.8-0.4,1.2-1,1.2-1.7c0-0.5-0.2-0.8-0.5-1.1c-0.3-0.3-0.7-0.5-1.2-0.5c-1.1,0-1.6,0.7-1.7,2
				L298.1,123.2"/>
			<path id="path6436" class="st1" d="M304.7,124.8c0-0.8,0.1-1.4,0.2-2c0.1-0.6,0.3-1,0.5-1.4c0.2-0.3,0.5-0.6,0.7-0.8
				c0.3-0.2,0.6-0.3,0.8-0.4c0.3-0.1,0.5-0.1,0.8-0.1c0.6,0,1.2,0.2,1.6,0.6c0.4,0.4,0.7,0.9,0.8,1.6h-1.1c-0.1-0.4-0.3-0.7-0.5-0.9
				c-0.2-0.2-0.6-0.3-0.9-0.3c-0.6,0-1.1,0.3-1.4,0.8c-0.3,0.6-0.5,1.3-0.5,2.4c0.5-0.6,1.1-0.9,2-0.9c0.8,0,1.4,0.3,1.9,0.8
				c0.5,0.5,0.7,1.2,0.7,1.9c0,0.8-0.3,1.5-0.8,2.1c-0.5,0.5-1.2,0.8-2,0.8C305.6,129,304.7,127.6,304.7,124.8 M307.6,124.4
				c-0.5,0-0.9,0.2-1.3,0.5c-0.3,0.3-0.5,0.8-0.5,1.3c0,0.5,0.2,1,0.5,1.4c0.3,0.4,0.7,0.5,1.2,0.5c0.5,0,0.9-0.2,1.2-0.5
				c0.3-0.4,0.5-0.8,0.5-1.3c0-0.6-0.1-1-0.4-1.3C308.5,124.5,308.1,124.4,307.6,124.4"/>
			<path id="path6438" class="st1" d="M311.4,124.6c0-0.7,0.1-1.3,0.2-1.9c0.1-0.5,0.3-1,0.5-1.3c0.2-0.3,0.4-0.6,0.7-0.8
				c0.3-0.2,0.5-0.3,0.7-0.4c0.2-0.1,0.5-0.1,0.8-0.1c1.9,0,2.8,1.5,2.8,4.5c0,1.4-0.2,2.5-0.7,3.2c-0.5,0.7-1.2,1.1-2.1,1.1
				c-0.9,0-1.6-0.4-2.1-1.1C311.6,127.1,311.4,126,311.4,124.6 M315.8,124.6c0-2.3-0.6-3.4-1.7-3.4c-1.1,0-1.7,1.2-1.7,3.5
				c0,2.3,0.6,3.5,1.7,3.5c0.6,0,1-0.3,1.3-0.9C315.7,126.7,315.8,125.8,315.8,124.6"/>
		</g>
		<g id="flowRoot3283" transform="matrix(.17365 .98481 -.98481 .17365 623.18 323.39)">
			<path id="path6441" class="st1" d="M305.5,124.2c1,0.5,1.5,1.2,1.5,2.1c0,0.8-0.3,1.4-0.8,1.9c-0.5,0.5-1.2,0.7-2.1,0.7
				s-1.5-0.2-2.1-0.7c-0.5-0.5-0.8-1.1-0.8-1.9c0-0.9,0.5-1.6,1.5-2.1c-0.4-0.3-0.7-0.5-0.9-0.8c-0.2-0.3-0.3-0.6-0.3-1
				c0-0.7,0.2-1.2,0.7-1.6c0.5-0.4,1.1-0.6,1.8-0.6c0.8,0,1.4,0.2,1.8,0.6c0.5,0.4,0.7,1,0.7,1.6c0,0.4-0.1,0.7-0.3,1
				C306.3,123.7,306,124,305.5,124.2 M305.2,121.5c-0.3-0.2-0.6-0.4-1.1-0.4c-0.4,0-0.8,0.1-1.1,0.4c-0.3,0.2-0.4,0.6-0.4,1
				c0,0.4,0.1,0.7,0.4,1c0.3,0.2,0.6,0.4,1.1,0.4c0.4,0,0.8-0.1,1.1-0.4c0.3-0.2,0.4-0.6,0.4-1C305.6,122.1,305.5,121.8,305.2,121.5
				 M305.4,125.2c-0.3-0.3-0.8-0.5-1.3-0.5c-0.5,0-1,0.2-1.3,0.5c-0.3,0.3-0.5,0.7-0.5,1.2c0,0.5,0.2,0.9,0.5,1.2
				c0.3,0.3,0.8,0.5,1.3,0.5c0.5,0,1-0.2,1.3-0.5c0.3-0.3,0.5-0.7,0.5-1.2C305.9,125.9,305.7,125.5,305.4,125.2"/>
			<path id="path6443" class="st1" d="M308,124.6c0-0.7,0.1-1.3,0.2-1.9c0.1-0.5,0.3-1,0.5-1.3c0.2-0.3,0.4-0.6,0.7-0.8
				c0.3-0.2,0.5-0.3,0.7-0.4c0.2-0.1,0.5-0.1,0.8-0.1c1.9,0,2.8,1.5,2.8,4.5c0,1.4-0.2,2.5-0.7,3.2c-0.5,0.7-1.2,1.1-2.1,1.1
				c-0.9,0-1.6-0.4-2.1-1.1C308.3,127.1,308,126,308,124.6 M312.5,124.6c0-2.3-0.6-3.4-1.7-3.4c-1.1,0-1.7,1.2-1.7,3.5
				c0,2.3,0.6,3.5,1.7,3.5c0.6,0,1-0.3,1.3-0.9C312.4,126.7,312.5,125.8,312.5,124.6"/>
		</g>
		<g id="flowRoot3295" transform="matrix(-.34202 -.93969 .93969 -.34202 186.7 1075.4)">
			<path id="path6446" class="st1" d="M298.1,123.2c0.1-2,1-3,2.8-3c0.8,0,1.5,0.2,2,0.7c0.5,0.5,0.8,1.1,0.8,1.8
				c0,1.1-0.6,1.9-1.8,2.6l-1.2,0.6c-0.5,0.3-0.9,0.6-1.1,0.8c-0.2,0.3-0.4,0.6-0.4,0.9h4.5v1h-5.7c0-0.9,0.2-1.7,0.6-2.2
				c0.3-0.5,0.9-1,1.8-1.5l1.1-0.6c0.8-0.4,1.2-1,1.2-1.7c0-0.5-0.2-0.8-0.5-1.1c-0.3-0.3-0.7-0.5-1.2-0.5c-1.1,0-1.6,0.7-1.7,2
				L298.1,123.2"/>
			<path id="path6448" class="st1" d="M309.9,120.2v1h-3.5l-0.3,2.4c0.5-0.3,1-0.5,1.6-0.5c0.8,0,1.5,0.3,2,0.8
				c0.5,0.5,0.8,1.2,0.8,2c0,0.9-0.3,1.6-0.8,2.2c-0.5,0.6-1.2,0.9-2.1,0.9c-0.3,0-0.6,0-0.9-0.1c-0.3-0.1-0.5-0.2-0.7-0.3
				c-0.2-0.1-0.3-0.2-0.5-0.4c-0.1-0.2-0.3-0.3-0.3-0.4c-0.1-0.1-0.1-0.3-0.2-0.5c-0.1-0.2-0.1-0.3-0.1-0.4c0-0.1,0-0.2-0.1-0.3h1.1
				c0.2,1,0.8,1.4,1.7,1.4c0.6,0,1-0.2,1.4-0.5c0.3-0.4,0.5-0.8,0.5-1.4c0-0.6-0.2-1.1-0.5-1.5c-0.3-0.4-0.8-0.6-1.4-0.6
				c-0.3,0-0.6,0.1-0.8,0.2c-0.2,0.1-0.5,0.3-0.7,0.6h-1l0.6-4.6H309.9"/>
			<path id="path6450" class="st1" d="M311.4,124.6c0-0.7,0.1-1.3,0.2-1.9c0.1-0.5,0.3-1,0.5-1.3c0.2-0.3,0.4-0.6,0.7-0.8
				c0.3-0.2,0.5-0.3,0.7-0.4c0.2-0.1,0.5-0.1,0.8-0.1c1.9,0,2.8,1.5,2.8,4.5c0,1.4-0.2,2.5-0.7,3.2c-0.5,0.7-1.2,1.1-2.1,1.1
				c-0.9,0-1.6-0.4-2.1-1.1C311.6,127.1,311.4,126,311.4,124.6 M315.8,124.6c0-2.3-0.6-3.4-1.7-3.4c-1.1,0-1.7,1.2-1.7,3.5
				c0,2.3,0.6,3.5,1.7,3.5c0.6,0,1-0.3,1.3-0.9C315.7,126.7,315.8,125.8,315.8,124.6"/>
		</g>
		<g id="flowRoot3305" transform="matrix(.34202 .93969 -.93969 .34202 557.39 285.2)">
			<path id="path6453" class="st1" d="M307.1,120.2v0.9c-1,1.3-1.7,2.5-2.3,3.8c-0.6,1.2-0.9,2.5-1.2,3.9h-1.1
				c0.3-1.4,0.7-2.6,1.2-3.7s1.3-2.3,2.3-3.8h-4.6v-1H307.1"/>
			<path id="path6455" class="st1" d="M308,124.6c0-0.7,0.1-1.3,0.2-1.9c0.1-0.5,0.3-1,0.5-1.3c0.2-0.3,0.4-0.6,0.7-0.8
				c0.3-0.2,0.5-0.3,0.7-0.4c0.2-0.1,0.5-0.1,0.8-0.1c1.9,0,2.8,1.5,2.8,4.5c0,1.4-0.2,2.5-0.7,3.2c-0.5,0.7-1.2,1.1-2.1,1.1
				c-0.9,0-1.6-0.4-2.1-1.1C308.3,127.1,308,126,308,124.6 M312.5,124.6c0-2.3-0.6-3.4-1.7-3.4c-1.1,0-1.7,1.2-1.7,3.5
				c0,2.3,0.6,3.5,1.7,3.5c0.6,0,1-0.3,1.3-0.9C312.4,126.7,312.5,125.8,312.5,124.6"/>
		</g>
		<g id="flowRoot3317" transform="matrix(-0.5 -.86603 .86603 -0.5 258.13 1101.6)">
			<path id="path6458" class="st1" d="M298.1,123.2c0.1-2,1-3,2.8-3c0.8,0,1.5,0.2,2,0.7c0.5,0.5,0.8,1.1,0.8,1.8
				c0,1.1-0.6,1.9-1.8,2.6l-1.2,0.6c-0.5,0.3-0.9,0.6-1.1,0.8c-0.2,0.3-0.4,0.6-0.4,0.9h4.5v1h-5.7c0-0.9,0.2-1.7,0.6-2.2
				c0.3-0.5,0.9-1,1.8-1.5l1.1-0.6c0.8-0.4,1.2-1,1.2-1.7c0-0.5-0.2-0.8-0.5-1.1c-0.3-0.3-0.7-0.5-1.2-0.5c-1.1,0-1.6,0.7-1.7,2
				L298.1,123.2"/>
			<path id="path6460" class="st1" d="M308.1,126.7h-3.6v-1.1l3.9-5.4h0.8v5.5h1.3v0.9h-1.3v2h-1.1V126.7 M308.1,125.7V122l-2.7,3.7
				H308.1"/>
			<path id="path6462" class="st1" d="M311.3,124.6c0-0.7,0.1-1.3,0.2-1.9c0.1-0.5,0.3-1,0.5-1.3c0.2-0.3,0.4-0.6,0.7-0.8
				c0.3-0.2,0.5-0.3,0.7-0.4c0.2-0.1,0.5-0.1,0.8-0.1c1.9,0,2.8,1.5,2.8,4.5c0,1.4-0.2,2.5-0.7,3.2c-0.5,0.7-1.2,1.1-2.1,1.1
				c-0.9,0-1.6-0.4-2.1-1.1C311.6,127.1,311.3,126,311.3,124.6 M315.8,124.6c0-2.3-0.6-3.4-1.7-3.4c-1.1,0-1.7,1.2-1.7,3.5
				c0,2.3,0.6,3.5,1.7,3.5c0.6,0,1-0.3,1.3-0.9C315.7,126.7,315.8,125.8,315.8,124.6"/>
		</g>
		<g id="flowRoot3327" transform="matrix(0.5 .86603 -.86603 0.5 485.96 259.02)">
			<path id="path6465" class="st1" d="M301.3,124.8c0-0.8,0.1-1.4,0.2-2c0.1-0.6,0.3-1,0.5-1.4c0.2-0.3,0.5-0.6,0.7-0.8
				c0.3-0.2,0.6-0.3,0.8-0.4c0.3-0.1,0.5-0.1,0.8-0.1c0.6,0,1.2,0.2,1.6,0.6c0.4,0.4,0.7,0.9,0.8,1.6h-1.1c-0.1-0.4-0.3-0.7-0.5-0.9
				c-0.2-0.2-0.6-0.3-0.9-0.3c-0.6,0-1.1,0.3-1.4,0.8c-0.3,0.6-0.5,1.3-0.5,2.4c0.5-0.6,1.1-0.9,2-0.9c0.8,0,1.4,0.3,1.9,0.8
				c0.5,0.5,0.7,1.2,0.7,1.9c0,0.8-0.3,1.5-0.8,2.1c-0.5,0.5-1.2,0.8-2,0.8C302.3,129,301.3,127.6,301.3,124.8 M304.2,124.4
				c-0.5,0-0.9,0.2-1.3,0.5c-0.3,0.3-0.5,0.8-0.5,1.3c0,0.5,0.2,1,0.5,1.4c0.3,0.4,0.7,0.5,1.2,0.5c0.5,0,0.9-0.2,1.2-0.5
				c0.3-0.4,0.5-0.8,0.5-1.3c0-0.6-0.1-1-0.4-1.3C305.2,124.5,304.8,124.4,304.2,124.4"/>
			<path id="path6467" class="st1" d="M308,124.6c0-0.7,0.1-1.3,0.2-1.9c0.1-0.5,0.3-1,0.5-1.3c0.2-0.3,0.4-0.6,0.7-0.8
				c0.3-0.2,0.5-0.3,0.7-0.4c0.2-0.1,0.5-0.1,0.8-0.1c1.9,0,2.8,1.5,2.8,4.5c0,1.4-0.2,2.5-0.7,3.2c-0.5,0.7-1.2,1.1-2.1,1.1
				c-0.9,0-1.6-0.4-2.1-1.1C308.3,127.1,308,126,308,124.6 M312.5,124.6c0-2.3-0.6-3.4-1.7-3.4c-1.1,0-1.7,1.2-1.7,3.5
				c0,2.3,0.6,3.5,1.7,3.5c0.6,0,1-0.3,1.3-0.9C312.4,126.7,312.5,125.8,312.5,124.6"/>
		</g>
		<g id="flowRoot3339" transform="matrix(-.64279 -.76604 .76604 -.64279 333.02 1115)">
			<path id="path6470" class="st1" d="M298.1,123.2c0.1-2,1-3,2.8-3c0.8,0,1.5,0.2,2,0.7c0.5,0.5,0.8,1.1,0.8,1.8
				c0,1.1-0.6,1.9-1.8,2.6l-1.2,0.6c-0.5,0.3-0.9,0.6-1.1,0.8c-0.2,0.3-0.4,0.6-0.4,0.9h4.5v1h-5.7c0-0.9,0.2-1.7,0.6-2.2
				c0.3-0.5,0.9-1,1.8-1.5l1.1-0.6c0.8-0.4,1.2-1,1.2-1.7c0-0.5-0.2-0.8-0.5-1.1c-0.3-0.3-0.7-0.5-1.2-0.5c-1.1,0-1.6,0.7-1.7,2
				L298.1,123.2"/>
			<path id="path6472" class="st1" d="M307.4,121.1c-0.6,0-1,0.2-1.3,0.5c-0.2,0.3-0.3,0.8-0.4,1.3h-1.1c0-1.8,0.9-2.7,2.7-2.7
				c0.8,0,1.4,0.2,1.9,0.6c0.5,0.4,0.7,1,0.7,1.7c0,0.9-0.4,1.5-1.2,1.8c0.5,0.2,0.9,0.4,1.1,0.7c0.2,0.3,0.3,0.7,0.3,1.3
				c0,0.8-0.3,1.5-0.8,1.9c-0.5,0.5-1.2,0.7-2.1,0.7c-1.7,0-2.7-0.9-2.8-2.7h1.1c0,0.6,0.2,1.1,0.5,1.4c0.3,0.3,0.7,0.4,1.3,0.4
				c0.6,0,1-0.1,1.3-0.4c0.3-0.3,0.5-0.7,0.5-1.3c0-1-0.6-1.5-1.8-1.5l-0.4,0h-0.1v-0.9c0.8,0,1.3-0.1,1.6-0.3
				c0.3-0.2,0.5-0.5,0.5-1c0-0.4-0.1-0.8-0.4-1.1C308.2,121.3,307.9,121.1,307.4,121.1"/>
			<path id="path6474" class="st1" d="M311.4,124.6c0-0.7,0.1-1.3,0.2-1.9c0.1-0.5,0.3-1,0.5-1.3c0.2-0.3,0.4-0.6,0.7-0.8
				c0.3-0.2,0.5-0.3,0.7-0.4c0.2-0.1,0.5-0.1,0.8-0.1c1.9,0,2.8,1.5,2.8,4.5c0,1.4-0.2,2.5-0.7,3.2c-0.5,0.7-1.2,1.1-2.1,1.1
				c-0.9,0-1.6-0.4-2.1-1.1C311.6,127.1,311.4,126,311.4,124.6 M315.8,124.6c0-2.3-0.6-3.4-1.7-3.4c-1.1,0-1.7,1.2-1.7,3.5
				c0,2.3,0.6,3.5,1.7,3.5c0.6,0,1-0.3,1.3-0.9C315.7,126.7,315.8,125.8,315.8,124.6"/>
		</g>
		<g id="flowRoot3349" transform="matrix(.64279 .76604 -.76604 .64279 411.07 245.64)">
			<path id="path6477" class="st1" d="M306.5,120.2v1H303l-0.3,2.4c0.5-0.3,1-0.5,1.6-0.5c0.8,0,1.5,0.3,2,0.8
				c0.5,0.5,0.8,1.2,0.8,2c0,0.9-0.3,1.6-0.8,2.2c-0.5,0.6-1.2,0.9-2.1,0.9c-0.3,0-0.6,0-0.9-0.1c-0.3-0.1-0.5-0.2-0.7-0.3
				c-0.2-0.1-0.3-0.2-0.5-0.4c-0.1-0.2-0.3-0.3-0.3-0.4c-0.1-0.1-0.1-0.3-0.2-0.5c-0.1-0.2-0.1-0.3-0.1-0.4c0-0.1,0-0.2-0.1-0.3h1.1
				c0.2,1,0.8,1.4,1.7,1.4c0.6,0,1-0.2,1.4-0.5c0.3-0.4,0.5-0.8,0.5-1.4c0-0.6-0.2-1.1-0.5-1.5c-0.3-0.4-0.8-0.6-1.4-0.6
				c-0.3,0-0.6,0.1-0.8,0.2c-0.2,0.1-0.5,0.3-0.7,0.6h-1l0.6-4.6H306.5"/>
			<path id="path6479" class="st1" d="M308,124.6c0-0.7,0.1-1.3,0.2-1.9c0.1-0.5,0.3-1,0.5-1.3c0.2-0.3,0.4-0.6,0.7-0.8
				c0.3-0.2,0.5-0.3,0.7-0.4c0.2-0.1,0.5-0.1,0.8-0.1c1.9,0,2.8,1.5,2.8,4.5c0,1.4-0.2,2.5-0.7,3.2c-0.5,0.7-1.2,1.1-2.1,1.1
				c-0.9,0-1.6-0.4-2.1-1.1C308.3,127.1,308,126,308,124.6 M312.5,124.6c0-2.3-0.6-3.4-1.7-3.4c-1.1,0-1.7,1.2-1.7,3.5
				c0,2.3,0.6,3.5,1.7,3.5c0.6,0,1-0.3,1.3-0.9C312.4,126.7,312.5,125.8,312.5,124.6"/>
		</g>
		<g id="flowRoot3361" transform="matrix(-.76604 -.64279 .64279 -.76604 409.09 1115.2)">
			<path id="path6482" class="st1" d="M298.1,123.2c0.1-2,1-3,2.8-3c0.8,0,1.5,0.2,2,0.7c0.5,0.5,0.8,1.1,0.8,1.8
				c0,1.1-0.6,1.9-1.8,2.6l-1.2,0.6c-0.5,0.3-0.9,0.6-1.1,0.8c-0.2,0.3-0.4,0.6-0.4,0.9h4.5v1h-5.7c0-0.9,0.2-1.7,0.6-2.2
				c0.3-0.5,0.9-1,1.8-1.5l1.1-0.6c0.8-0.4,1.2-1,1.2-1.7c0-0.5-0.2-0.8-0.5-1.1c-0.3-0.3-0.7-0.5-1.2-0.5c-1.1,0-1.6,0.7-1.7,2
				L298.1,123.2"/>
			<path id="path6484" class="st1" d="M304.8,123.2c0.1-2,1-3,2.8-3c0.8,0,1.5,0.2,2,0.7c0.5,0.5,0.8,1.1,0.8,1.8
				c0,1.1-0.6,1.9-1.8,2.6l-1.2,0.6c-0.5,0.3-0.9,0.6-1.1,0.8c-0.2,0.3-0.4,0.6-0.4,0.9h4.5v1h-5.7c0-0.9,0.2-1.7,0.6-2.2
				c0.3-0.5,0.9-1,1.8-1.5l1.1-0.6c0.8-0.4,1.2-1,1.2-1.7c0-0.5-0.2-0.8-0.5-1.1c-0.3-0.3-0.7-0.5-1.2-0.5c-1.1,0-1.6,0.7-1.7,2
				L304.8,123.2"/>
			<path id="path6486" class="st1" d="M311.4,124.6c0-0.7,0.1-1.3,0.2-1.9c0.1-0.5,0.3-1,0.5-1.3c0.2-0.3,0.4-0.6,0.7-0.8
				c0.3-0.2,0.5-0.3,0.7-0.4c0.2-0.1,0.5-0.1,0.8-0.1c1.9,0,2.8,1.5,2.8,4.5c0,1.4-0.2,2.5-0.7,3.2c-0.5,0.7-1.2,1.1-2.1,1.1
				c-0.9,0-1.6-0.4-2.1-1.1C311.6,127.1,311.4,126,311.4,124.6 M315.8,124.6c0-2.3-0.6-3.4-1.7-3.4c-1.1,0-1.7,1.2-1.7,3.5
				c0,2.3,0.6,3.5,1.7,3.5c0.6,0,1-0.3,1.3-0.9C315.7,126.7,315.8,125.8,315.8,124.6"/>
		</g>
		<g id="flowRoot3371" transform="matrix(.76604 .64279 -.64279 .76604 335 245.47)">
			<path id="path6489" class="st1" d="M304.8,126.7h-3.6v-1.1l3.9-5.4h0.8v5.5h1.3v0.9h-1.3v2h-1.1V126.7 M304.8,125.7V122l-2.7,3.7
				H304.8"/>
			<path id="path6491" class="st1" d="M308,124.6c0-0.7,0.1-1.3,0.2-1.9c0.1-0.5,0.3-1,0.5-1.3c0.2-0.3,0.4-0.6,0.7-0.8
				c0.3-0.2,0.5-0.3,0.7-0.4c0.2-0.1,0.5-0.1,0.8-0.1c1.9,0,2.8,1.5,2.8,4.5c0,1.4-0.2,2.5-0.7,3.2c-0.5,0.7-1.2,1.1-2.1,1.1
				c-0.9,0-1.6-0.4-2.1-1.1C308.2,127.1,308,126,308,124.6 M312.5,124.6c0-2.3-0.6-3.4-1.7-3.4c-1.1,0-1.7,1.2-1.7,3.5
				c0,2.3,0.6,3.5,1.7,3.5c0.6,0,1-0.3,1.3-0.9C312.3,126.7,312.5,125.8,312.5,124.6"/>
		</g>
		<g id="flowRoot3383" transform="matrix(-.86603 -0.5 0.5 -.86603 484.04 1102.1)">
			<path id="path6494" class="st1" d="M298.1,123.2c0.1-2,1-3,2.8-3c0.8,0,1.5,0.2,2,0.7c0.5,0.5,0.8,1.1,0.8,1.8
				c0,1.1-0.6,1.9-1.8,2.6l-1.2,0.6c-0.5,0.3-0.9,0.6-1.1,0.8c-0.2,0.3-0.4,0.6-0.4,0.9h4.5v1h-5.7c0-0.9,0.2-1.7,0.6-2.2
				c0.3-0.5,0.9-1,1.8-1.5l1.1-0.6c0.8-0.4,1.2-1,1.2-1.7c0-0.5-0.2-0.8-0.5-1.1c-0.3-0.3-0.7-0.5-1.2-0.5c-1.1,0-1.6,0.7-1.7,2
				L298.1,123.2"/>
			<path id="path6496" class="st1" d="M307.3,122.7h-1.9v-0.8c0.8-0.1,1.3-0.2,1.6-0.4c0.2-0.2,0.5-0.6,0.6-1.3h0.7v8.5h-1.1
				L307.3,122.7"/>
			<path id="path6498" class="st1" d="M311.4,124.6c0-0.7,0.1-1.3,0.2-1.9c0.1-0.5,0.3-1,0.5-1.3c0.2-0.3,0.4-0.6,0.7-0.8
				c0.3-0.2,0.5-0.3,0.7-0.4c0.2-0.1,0.5-0.1,0.8-0.1c1.9,0,2.8,1.5,2.8,4.5c0,1.4-0.2,2.5-0.7,3.2c-0.5,0.7-1.2,1.1-2.1,1.1
				c-0.9,0-1.6-0.4-2.1-1.1C311.6,127.1,311.4,126,311.4,124.6 M315.8,124.6c0-2.3-0.6-3.4-1.7-3.4c-1.1,0-1.7,1.2-1.7,3.5
				c0,2.3,0.6,3.5,1.7,3.5c0.6,0,1-0.3,1.3-0.9C315.7,126.7,315.8,125.8,315.8,124.6"/>
		</g>
		<g id="flowRoot3393" transform="matrix(.86603 0.5 -0.5 .86603 260.05 258.51)">
			<path id="path6501" class="st1" d="M304.1,121.1c-0.6,0-1,0.2-1.3,0.5c-0.2,0.3-0.3,0.8-0.4,1.3h-1.1c0-1.8,0.9-2.7,2.7-2.7
				c0.8,0,1.4,0.2,1.9,0.6c0.5,0.4,0.7,1,0.7,1.7c0,0.9-0.4,1.5-1.2,1.8c0.5,0.2,0.9,0.4,1.1,0.7c0.2,0.3,0.3,0.7,0.3,1.3
				c0,0.8-0.3,1.5-0.8,1.9c-0.5,0.5-1.2,0.7-2.1,0.7c-1.7,0-2.7-0.9-2.8-2.7h1.1c0,0.6,0.2,1.1,0.5,1.4s0.7,0.4,1.3,0.4
				c0.6,0,1-0.1,1.3-0.4c0.3-0.3,0.5-0.7,0.5-1.3c0-1-0.6-1.5-1.8-1.5l-0.4,0h-0.1v-0.9c0.8,0,1.3-0.1,1.6-0.3
				c0.3-0.2,0.5-0.5,0.5-1c0-0.4-0.1-0.8-0.4-1.1C304.9,121.3,304.5,121.1,304.1,121.1"/>
			<path id="path6503" class="st1" d="M308,124.6c0-0.7,0.1-1.3,0.2-1.9c0.1-0.5,0.3-1,0.5-1.3c0.2-0.3,0.4-0.6,0.7-0.8
				c0.3-0.2,0.5-0.3,0.7-0.4c0.2-0.1,0.5-0.1,0.8-0.1c1.9,0,2.8,1.5,2.8,4.5c0,1.4-0.2,2.5-0.7,3.2c-0.5,0.7-1.2,1.1-2.1,1.1
				c-0.9,0-1.6-0.4-2.1-1.1C308.3,127.1,308,126,308,124.6 M312.5,124.6c0-2.3-0.6-3.4-1.7-3.4c-1.1,0-1.7,1.2-1.7,3.5
				c0,2.3,0.6,3.5,1.7,3.5c0.6,0,1-0.3,1.3-0.9C312.4,126.7,312.5,125.8,312.5,124.6"/>
		</g>
		<g id="flowRoot3405" transform="matrix(-.93969 -.34202 .34202 -.93969 555.58 1076.3)">
			<path id="path6506" class="st1" d="M298.1,123.2c0.1-2,1-3,2.8-3c0.8,0,1.5,0.2,2,0.7c0.5,0.5,0.8,1.1,0.8,1.8
				c0,1.1-0.6,1.9-1.8,2.6l-1.2,0.6c-0.5,0.3-0.9,0.6-1.1,0.8c-0.2,0.3-0.4,0.6-0.4,0.9h4.5v1h-5.7c0-0.9,0.2-1.7,0.6-2.2
				c0.3-0.5,0.9-1,1.8-1.5l1.1-0.6c0.8-0.4,1.2-1,1.2-1.7c0-0.5-0.2-0.8-0.5-1.1c-0.3-0.3-0.7-0.5-1.2-0.5c-1.1,0-1.6,0.7-1.7,2
				L298.1,123.2"/>
			<path id="path6508" class="st1" d="M304.7,124.6c0-0.7,0.1-1.3,0.2-1.9c0.1-0.5,0.3-1,0.5-1.3c0.2-0.3,0.4-0.6,0.7-0.8
				c0.3-0.2,0.5-0.3,0.7-0.4c0.2-0.1,0.5-0.1,0.8-0.1c1.9,0,2.8,1.5,2.8,4.5c0,1.4-0.2,2.5-0.7,3.2c-0.5,0.7-1.2,1.1-2.1,1.1
				c-0.9,0-1.6-0.4-2.1-1.1C304.9,127.1,304.7,126,304.7,124.6 M309.2,124.6c0-2.3-0.6-3.4-1.7-3.4c-1.1,0-1.7,1.2-1.7,3.5
				c0,2.3,0.6,3.5,1.7,3.5c0.6,0,1-0.3,1.3-0.9C309,126.7,309.2,125.8,309.2,124.6"/>
			<path id="path6510" class="st1" d="M311.4,124.6c0-0.7,0.1-1.3,0.2-1.9c0.1-0.5,0.3-1,0.5-1.3c0.2-0.3,0.4-0.6,0.7-0.8
				c0.3-0.2,0.5-0.3,0.7-0.4c0.2-0.1,0.5-0.1,0.8-0.1c1.9,0,2.8,1.5,2.8,4.5c0,1.4-0.2,2.5-0.7,3.2c-0.5,0.7-1.2,1.1-2.1,1.1
				c-0.9,0-1.6-0.4-2.1-1.1C311.6,127.1,311.4,126,311.4,124.6 M315.8,124.6c0-2.3-0.6-3.4-1.7-3.4c-1.1,0-1.7,1.2-1.7,3.5
				c0,2.3,0.6,3.5,1.7,3.5c0.6,0,1-0.3,1.3-0.9C315.7,126.7,315.8,125.8,315.8,124.6"/>
		</g>
		<g id="flowRoot3415" transform="matrix(.93969 .34202 -.34202 .93969 188.51 284.36)">
			<path id="path6513" class="st1" d="M301.4,123.2c0.1-2,1-3,2.8-3c0.8,0,1.5,0.2,2,0.7c0.5,0.5,0.8,1.1,0.8,1.8
				c0,1.1-0.6,1.9-1.8,2.6l-1.2,0.6c-0.5,0.3-0.9,0.6-1.1,0.8c-0.2,0.3-0.4,0.6-0.4,0.9h4.5v1h-5.7c0-0.9,0.2-1.7,0.6-2.2
				c0.3-0.5,0.9-1,1.8-1.5l1.1-0.6c0.8-0.4,1.2-1,1.2-1.7c0-0.5-0.2-0.8-0.5-1.1c-0.3-0.3-0.7-0.5-1.2-0.5c-1.1,0-1.6,0.7-1.7,2
				L301.4,123.2"/>
			<path id="path6515" class="st1" d="M308,124.6c0-0.7,0.1-1.3,0.2-1.9c0.1-0.5,0.3-1,0.5-1.3c0.2-0.3,0.4-0.6,0.7-0.8
				c0.3-0.2,0.5-0.3,0.7-0.4c0.2-0.1,0.5-0.1,0.8-0.1c1.9,0,2.8,1.5,2.8,4.5c0,1.4-0.2,2.5-0.7,3.2c-0.5,0.7-1.2,1.1-2.1,1.1
				c-0.9,0-1.6-0.4-2.1-1.1C308.3,127.1,308,126,308,124.6 M312.5,124.6c0-2.3-0.6-3.4-1.7-3.4c-1.1,0-1.7,1.2-1.7,3.5
				c0,2.3,0.6,3.5,1.7,3.5c0.6,0,1-0.3,1.3-0.9C312.4,126.7,312.5,125.8,312.5,124.6"/>
		</g>
		<g id="flowRoot3427" transform="matrix(-.98481 -.17365 .17365 -.98481 621.55 1038.4)">
			<path id="path6518" class="st1" d="M300.6,122.7h-1.9v-0.8c0.8-0.1,1.3-0.2,1.6-0.4c0.2-0.2,0.5-0.6,0.6-1.3h0.7v8.5h-1.1
				L300.6,122.7"/>
			<path id="path6520" class="st1" d="M310.3,124.4c0,0.8-0.1,1.4-0.2,2c-0.1,0.6-0.3,1-0.5,1.3c-0.2,0.3-0.4,0.6-0.7,0.8
				c-0.3,0.2-0.5,0.3-0.8,0.4s-0.5,0.1-0.8,0.1c-0.6,0-1.2-0.2-1.6-0.6c-0.4-0.4-0.7-0.9-0.8-1.6h1.1c0.1,0.4,0.3,0.7,0.5,0.9
				s0.6,0.3,0.9,0.3c0.6,0,1.1-0.3,1.4-0.8c0.3-0.6,0.5-1.4,0.5-2.4c-0.5,0.6-1.2,0.9-1.9,0.9c-0.8,0-1.4-0.3-1.9-0.8
				c-0.5-0.5-0.7-1.2-0.7-1.9c0-0.8,0.3-1.5,0.8-2.1c0.5-0.5,1.2-0.8,2-0.8C309.3,120.2,310.3,121.6,310.3,124.4 M307.4,121.1
				c-0.5,0-0.9,0.2-1.2,0.5c-0.3,0.4-0.5,0.8-0.5,1.3c0,0.6,0.1,1,0.4,1.4c0.3,0.3,0.7,0.5,1.2,0.5c0.5,0,0.9-0.2,1.3-0.5
				c0.3-0.3,0.5-0.8,0.5-1.3c0-0.6-0.2-1-0.5-1.4C308.3,121.3,307.9,121.1,307.4,121.1"/>
			<path id="path6522" class="st1" d="M311.3,124.6c0-0.7,0.1-1.3,0.2-1.9c0.1-0.5,0.3-1,0.5-1.3c0.2-0.3,0.4-0.6,0.7-0.8
				c0.3-0.2,0.5-0.3,0.7-0.4c0.2-0.1,0.5-0.1,0.8-0.1c1.9,0,2.8,1.5,2.8,4.5c0,1.4-0.2,2.5-0.7,3.2c-0.5,0.7-1.2,1.1-2.1,1.1
				c-0.9,0-1.6-0.4-2.1-1.1C311.6,127.1,311.3,126,311.3,124.6 M315.8,124.6c0-2.3-0.6-3.4-1.7-3.4c-1.1,0-1.7,1.2-1.7,3.5
				c0,2.3,0.6,3.5,1.7,3.5c0.6,0,1-0.3,1.3-0.9C315.7,126.7,315.8,125.8,315.8,124.6"/>
		</g>
		<g id="flowRoot3437" transform="matrix(.98481 .17365 -.17365 .98481 122.54 322.25)">
			<path id="path6525" class="st1" d="M303.9,122.7H302v-0.8c0.8-0.1,1.3-0.2,1.6-0.4c0.2-0.2,0.5-0.6,0.6-1.3h0.7v8.5h-1.1
				L303.9,122.7"/>
			<path id="path6527" class="st1" d="M308,124.6c0-0.7,0.1-1.3,0.2-1.9c0.1-0.5,0.3-1,0.5-1.3c0.2-0.3,0.4-0.6,0.7-0.8
				c0.3-0.2,0.5-0.3,0.7-0.4c0.2-0.1,0.5-0.1,0.8-0.1c1.9,0,2.8,1.5,2.8,4.5c0,1.4-0.2,2.5-0.7,3.2c-0.5,0.7-1.2,1.1-2.1,1.1
				c-0.9,0-1.6-0.4-2.1-1.1C308.3,127.1,308,126,308,124.6 M312.5,124.6c0-2.3-0.6-3.4-1.7-3.4c-1.1,0-1.7,1.2-1.7,3.5
				c0,2.3,0.6,3.5,1.7,3.5c0.6,0,1-0.3,1.3-0.9C312.4,126.7,312.5,125.8,312.5,124.6"/>
		</g>
	</g>
	<path id="path3445" d="M406.1,483.3l-1.3,7.4l1.3,0.2l1.3-7.4L406.1,483.3L406.1,483.3z"/>
	<path id="path4671" class="st2" d="M565.3,680.3c0,106.8-86.5,193.3-193.3,193.3s-193.3-86.5-193.3-193.3S265.3,487,372,487
		S565.3,573.6,565.3,680.3z"/>
	<g id="g4857" transform="matrix(.99939 -0.0349 0.0349 .99939 -23.516 13.399)">
		<path id="path4859" d="M371.4,480.4v7.5h1.3v-7.5H371.4z"/>
		<path id="path4861" d="M372.7,880.2v-7.5h-1.3v7.5H372.7z"/>
	</g>
	<g id="g4863" transform="matrix(.99756 -.069756 .069756 .99756 -46.55 27.61)">
		<path id="path4865" d="M371.4,480.4v7.5h1.3v-7.5H371.4z"/>
		<path id="path4867" d="M372.7,880.2v-7.5h-1.3v7.5H372.7z"/>
	</g>
	<g id="g4869" transform="matrix(.99452 -.10453 .10453 .99452 -69.074 42.616)">
		<path id="path4871" d="M371.4,480.4v7.5h1.3v-7.5H371.4z"/>
		<path id="path4873" d="M372.7,880.2v-7.5h-1.3v7.5H372.7z"/>
	</g>
	<g id="g4875" transform="matrix(.99027 -.13917 .13917 .99027 -91.061 58.399)">
		<path id="path4877" d="M371.4,480.4v7.5h1.3v-7.5H371.4z"/>
		<path id="path4879" d="M372.7,880.2v-7.5h-1.3v7.5H372.7z"/>
	</g>
	<g id="g4881" transform="matrix(.97815 -.20791 .20791 .97815 -133.32 92.219)">
		<path id="path4883" d="M371.4,480.4v7.5h1.3v-7.5H371.4z"/>
		<path id="path4885" d="M372.7,880.2v-7.5h-1.3v7.5H372.7z"/>
	</g>
	<g id="g4887" transform="matrix(.97030 -.24192 .24192 .97030 -153.53 110.21)">
		<path id="path4889" d="M371.4,480.4v7.5h1.3v-7.5H371.4z"/>
		<path id="path4891" d="M372.7,880.2v-7.5h-1.3v7.5H372.7z"/>
	</g>
	<g id="g4893" transform="matrix(.96126 -.27564 .27564 .96126 -173.11 128.9)">
		<path id="path4895" d="M371.4,480.4v7.5h1.3v-7.5H371.4z"/>
		<path id="path4897" d="M372.7,880.2v-7.5h-1.3v7.5H372.7z"/>
	</g>
	<g id="g4899" transform="matrix(.95106 -.30902 .30902 .95106 -192.02 148.27)">
		<path id="path4901" d="M371.4,480.4v7.5h1.3v-7.5H371.4z"/>
		<path id="path4903" d="M372.7,880.2v-7.5h-1.3v7.5H372.7z"/>
	</g>
	<g id="g4905" transform="matrix(.92718 -.37461 .37461 .92718 -227.76 188.91)">
		<path id="path4907" d="M371.4,480.4v7.5h1.3v-7.5H371.4z"/>
		<path id="path4909" d="M372.7,880.2v-7.5h-1.3v7.5H372.7z"/>
	</g>
	<g id="g4911" transform="matrix(.91355 -.40674 .40674 .91355 -244.54 210.14)">
		<path id="path4913" d="M371.4,480.4v7.5h1.3v-7.5H371.4z"/>
		<path id="path4915" d="M372.7,880.2v-7.5h-1.3v7.5H372.7z"/>
	</g>
	<g id="g4917" transform="matrix(.89879 -.43837 .43837 .89879 -260.58 231.95)">
		<path id="path4919" d="M371.4,480.4v7.5h1.3v-7.5H371.4z"/>
		<path id="path4921" d="M372.7,880.2v-7.5h-1.3v7.5H372.7z"/>
	</g>
	<g id="g4923" transform="matrix(.88295 -.46947 .46947 .88295 -275.84 254.3)">
		<path id="path4925" d="M371.4,480.4v7.5h1.3v-7.5H371.4z"/>
		<path id="path4927" d="M372.7,880.2v-7.5h-1.3v7.5H372.7z"/>
	</g>
	<g id="g4929" transform="matrix(.84805 -.52992 .52992 .84805 -303.98 300.53)">
		<path id="path4931" d="M371.4,480.4v7.5h1.3v-7.5H371.4z"/>
		<path id="path4933" d="M372.7,880.2v-7.5h-1.3v7.5H372.7z"/>
	</g>
	<g id="g4935" transform="matrix(.82904 -.55919 .55919 .82904 -316.82 324.35)">
		<path id="path4937" d="M371.4,480.4v7.5h1.3v-7.5H371.4z"/>
		<path id="path4939" d="M372.7,880.2v-7.5h-1.3v7.5H372.7z"/>
	</g>
	<g id="g4941" transform="matrix(.80902 -.58779 .58779 .80902 -328.83 348.61)">
		<path id="path4943" d="M371.4,480.4v7.5h1.3v-7.5H371.4z"/>
		<path id="path4945" d="M372.7,880.2v-7.5h-1.3v7.5H372.7z"/>
	</g>
	<g id="g4947" transform="matrix(.78801 -.61566 .61566 .78801 -339.98 373.27)">
		<path id="path4949" d="M371.4,480.4v7.5h1.3v-7.5H371.4z"/>
		<path id="path4951" d="M372.7,880.2v-7.5h-1.3v7.5H372.7z"/>
	</g>
	<g id="g4953" transform="matrix(.74314 -.66913 .66913 .74314 -359.66 423.69)">
		<path id="path4955" d="M371.4,480.4v7.5h1.3v-7.5H371.4z"/>
		<path id="path4957" d="M372.7,880.2v-7.5h-1.3v7.5H372.7z"/>
	</g>
	<g id="g4959" transform="matrix(.71934 -.69466 .69466 .71934 -368.17 449.38)">
		<path id="path4961" d="M371.4,480.4v7.5h1.3v-7.5H371.4z"/>
		<path id="path4963" d="M372.7,880.2v-7.5h-1.3v7.5H372.7z"/>
	</g>
	<g id="g4965" transform="matrix(.69466 -.71934 .71934 .69466 -375.78 475.36)">
		<path id="path4967" d="M371.4,480.4l0,7.5h1.3v-7.5H371.4z"/>
		<path id="path4969" d="M372.7,880.2v-7.5h-1.3v7.5H372.7z"/>
	</g>
	<g id="g4971" transform="matrix(.66913 -.74314 .74314 .66913 -382.48 501.58)">
		<path id="path4973" d="M371.4,480.4v7.5h1.3v-7.5H371.4z"/>
		<path id="path4975" d="M372.7,880.2v-7.5h-1.3v7.5H372.7z"/>
	</g>
	<g id="g4977" transform="matrix(.61566 -.78801 .78801 .61566 -393.11 554.65)">
		<path id="path4979" d="M371.4,480.4v7.5h1.3v-7.5H371.4z"/>
		<path id="path4981" d="M372.7,880.2v-7.5h-1.3v7.5H372.7z"/>
	</g>
	<g id="g4983" transform="matrix(.58779 -.80902 .80902 .58779 -397.03 581.43)">
		<path id="path4985" d="M371.4,480.4v7.5h1.3v-7.5H371.4z"/>
		<path id="path4987" d="M372.7,880.2v-7.5h-1.3v7.5H372.7z"/>
	</g>
	<g id="g4989" transform="matrix(.55919 -.82904 .82904 .55919 -400.01 608.33)">
		<path id="path4991" d="M371.4,480.4v7.5h1.3v-7.5H371.4z"/>
		<path id="path4993" d="M372.7,880.2v-7.5h-1.3v7.5H372.7z"/>
	</g>
	<g id="g4995" transform="matrix(.52992 -.84805 .84805 .52992 -402.05 635.32)">
		<path id="path4997" d="M371.4,480.4v7.5h1.3v-7.5H371.4z"/>
		<path id="path4999" d="M372.7,880.2v-7.5h-1.3v7.5H372.7z"/>
	</g>
	<g id="g5001" transform="matrix(.46947 -.88295 .88295 .46947 -403.3 689.42)">
		<path id="path5003" d="M371.4,480.4v7.5h1.3v-7.5H371.4z"/>
		<path id="path5005" d="M372.7,880.2v-7.5h-1.3v7.5H372.7z"/>
	</g>
	<g id="g5007" transform="matrix(.43837 -.89879 .89879 .43837 -402.51 716.48)">
		<path id="path5009" d="M371.4,480.4v7.5h1.3v-7.5H371.4z"/>
		<path id="path5011" d="M372.7,880.2v-7.5h-1.3v7.5H372.7z"/>
	</g>
	<g id="g5013" transform="matrix(.40674 -.91355 .91355 .40674 -400.78 743.49)">
		<path id="path5015" d="M371.4,480.4v7.5h1.3v-7.5H371.4z"/>
		<path id="path5017" d="M372.7,880.2v-7.5h-1.3v7.5H372.7z"/>
	</g>
	<g id="g5019" transform="matrix(.37461 -.92718 .92718 .37461 -398.1 770.42)">
		<path id="path5021" d="M371.4,480.4v7.5h1.3v-7.5H371.4z"/>
		<path id="path5023" d="M372.7,880.2v-7.5h-1.3v7.5H372.7z"/>
	</g>
	<g id="g5025" transform="matrix(.30902 -.95106 .95106 .30902 -389.94 823.92)">
		<path id="path5027" d="M371.4,480.4v7.5h1.3v-7.5H371.4z"/>
		<path id="path5029" d="M372.7,880.2v-7.5h-1.3v7.5H372.7z"/>
	</g>
	<g id="g5031" transform="matrix(.27564 -.96126 .96126 .27564 -384.47 850.43)">
		<path id="path5033" d="M371.4,480.4v7.5h1.3v-7.5H371.4z"/>
		<path id="path5035" d="M372.7,880.2v-7.5h-1.3v7.5H372.7z"/>
	</g>
	<g id="g5037" transform="matrix(.24192 -.97030 .97030 .24192 -378.07 876.73)">
		<path id="path5039" d="M371.4,480.4v7.5h1.3v-7.5H371.4z"/>
		<path id="path5041" d="M372.7,880.2v-7.5h-1.3v7.5H372.7z"/>
	</g>
	<g id="g5043" transform="matrix(.20791 -.97815 .97815 .20791 -370.76 902.79)">
		<path id="path5045" d="M371.4,480.4v7.5h1.3v-7.5H371.4z"/>
		<path id="path5047" d="M372.7,880.2v-7.5h-1.3v7.5H372.7z"/>
	</g>
	<g id="g5049" transform="matrix(.13917 -.99027 .99027 .13917 -353.43 954.06)">
		<path id="path5051" d="M371.4,480.4v7.5h1.3v-7.5H371.4z"/>
		<path id="path5053" d="M372.7,880.2v-7.5h-1.3v7.5H372.7z"/>
	</g>
	<g id="g5055" transform="matrix(.10453 -.99452 .99452 .10453 -343.43 979.21)">
		<path id="path5057" d="M371.4,480.4v7.5h1.3v-7.5H371.4z"/>
		<path id="path5059" d="M372.7,880.2v-7.5h-1.3v7.5H372.7z"/>
	</g>
	<g id="g5061" transform="matrix(.069756 -.99756 .99756 .069756 -332.57 1004)">
		<path id="path5063" d="M371.4,480.4v7.5h1.3v-7.5H371.4z"/>
		<path id="path5065" d="M372.7,880.2v-7.5h-1.3v7.5H372.7z"/>
	</g>
	<g id="g5067" transform="matrix(.034899 -.99939 .99939 .034899 -320.84 1028.4)">
		<path id="path5069" d="M371.4,480.4v7.5h1.3v-7.5H371.4z"/>
		<path id="path5071" d="M372.7,880.2v-7.5h-1.3v7.5H372.7z"/>
	</g>
	<g id="g5073" transform="matrix(-0.0349 -.99939 .99939 -0.0349 -294.87 1075.9)">
		<path id="path5075" d="M371.4,480.4v7.5h1.3v-7.5H371.4z"/>
		<path id="path5077" d="M372.7,880.2v-7.5h-1.3v7.5H372.7z"/>
	</g>
	<g id="g5079" transform="matrix(-.069756 -.99756 .99756 -.069756 -280.66 1098.9)">
		<path id="path5081" d="M371.4,480.4v7.5h1.3v-7.5H371.4z"/>
		<path id="path5083" d="M372.7,880.2v-7.5h-1.3v7.5H372.7z"/>
	</g>
	<g id="g5085" transform="matrix(-.10453 -.99452 .99452 -.10453 -265.66 1121.4)">
		<path id="path5087" d="M371.4,480.4v7.5h1.3v-7.5H371.4z"/>
		<path id="path5089" d="M372.7,880.2v-7.5h-1.3v7.5H372.7z"/>
	</g>
	<g id="g5091" transform="matrix(-.13917 -.99027 .99027 -.13917 -249.87 1143.4)">
		<path id="path5093" d="M371.4,480.4v7.5h1.3v-7.5H371.4z"/>
		<path id="path5095" d="M372.7,880.2v-7.5h-1.3v7.5H372.7z"/>
	</g>
	<g id="g5097" transform="matrix(-.20791 -.97815 .97815 -.20791 -216.05 1185.7)">
		<path id="path5099" d="M371.4,480.4v7.5h1.3v-7.5H371.4z"/>
		<path id="path5101" d="M372.7,880.2v-7.5h-1.3v7.5H372.7z"/>
	</g>
	<g id="g5103" transform="matrix(-.24192 -.97030 .97030 -.24192 -198.06 1205.9)">
		<path id="path5105" d="M371.4,480.4v7.5h1.3v-7.5H371.4z"/>
		<path id="path5107" d="M372.7,880.2v-7.5h-1.3v7.5H372.7z"/>
	</g>
	<g id="g5109" transform="matrix(-.27564 -.96126 .96126 -.27564 -179.37 1225.5)">
		<path id="path5111" d="M371.4,480.4v7.5h1.3v-7.5H371.4z"/>
		<path id="path5113" d="M372.7,880.2v-7.5h-1.3v7.5H372.7z"/>
	</g>
	<g id="g5115" transform="matrix(-.30902 -.95106 .95106 -.30902 -160.01 1244.4)">
		<path id="path5117" d="M371.4,480.4v7.5h1.3v-7.5H371.4z"/>
		<path id="path5119" d="M372.7,880.2v-7.5h-1.3v7.5H372.7z"/>
	</g>
	<g id="g5121" transform="matrix(-.37461 -.92718 .92718 -.37461 -119.36 1280.1)">
		<path id="path5123" d="M371.4,480.4v7.5h1.3v-7.5H371.4z"/>
		<path id="path5125" d="M372.7,880.2v-7.5h-1.3v7.5H372.7z"/>
	</g>
	<g id="g5127" transform="matrix(-.40674 -.91355 .91355 -.40674 -98.131 1296.9)">
		<path id="path5129" d="M371.4,480.4v7.5h1.3v-7.5H371.4z"/>
		<path id="path5131" d="M372.7,880.2v-7.5h-1.3v7.5H372.7z"/>
	</g>
	<g id="g5133" transform="matrix(-.43837 -.89879 .89879 -.43837 -76.326 1312.9)">
		<path id="path5135" d="M371.4,480.4v7.5h1.3v-7.5H371.4z"/>
		<path id="path5137" d="M372.7,880.2v-7.5h-1.3v7.5H372.7z"/>
	</g>
	<g id="g5139" transform="matrix(-.46947 -.88295 .88295 -.46947 -53.975 1328.2)">
		<path id="path5141" d="M371.4,480.4v7.5h1.3v-7.5H371.4z"/>
		<path id="path5143" d="M372.7,880.2v-7.5h-1.3v7.5H372.7z"/>
	</g>
	<g id="g5145" transform="matrix(-.52992 -.84805 .84805 -.52992 -7.7429 1356.3)">
		<path id="path5147" d="M371.4,480.4v7.5h1.3v-7.5H371.4z"/>
		<path id="path5149" d="M372.7,880.2v-7.5h-1.3v7.5H372.7z"/>
	</g>
	<g id="g5151" transform="matrix(-.55919 -.82904 .82904 -.55919 16.081 1369.2)">
		<path id="path5153" d="M371.4,480.4v7.5h1.3v-7.5H371.4z"/>
		<path id="path5155" d="M372.7,880.2v-7.5h-1.3v7.5H372.7z"/>
	</g>
	<g id="g5157" transform="matrix(-.58779 -.80902 .80902 -.58779 40.339 1381.2)">
		<path id="path5159" d="M371.4,480.4v7.5h1.3v-7.5H371.4z"/>
		<path id="path5161" d="M372.7,880.2v-7.5h-1.3v7.5H372.7z"/>
	</g>
	<g id="g5163" transform="matrix(-.61566 -.78801 .78801 -.61566 65.002 1392.3)">
		<path id="path5165" d="M371.4,480.4v7.5h1.3v-7.5H371.4z"/>
		<path id="path5167" d="M372.7,880.2v-7.5h-1.3v7.5H372.7z"/>
	</g>
	<g id="g5169" transform="matrix(-.66913 -.74314 .74314 -.66913 115.42 1412)">
		<path id="path5171" d="M371.4,480.4v7.5h1.3v-7.5H371.4z"/>
		<path id="path5173" d="M372.7,880.2v-7.5h-1.3v7.5H372.7z"/>
	</g>
	<g id="g5175" transform="matrix(-.69466 -.71934 .71934 -.69466 141.11 1420.5)">
		<path id="path5177" d="M371.4,480.4v7.5h1.3v-7.5H371.4z"/>
		<path id="path5179" d="M372.7,880.2v-7.5h-1.3v7.5H372.7z"/>
	</g>
	<g id="g5181" transform="matrix(-.71934 -.69466 .69466 -.71934 167.08 1428.1)">
		<path id="path5183" d="M371.4,480.4v7.5h1.3v-7.5H371.4z"/>
		<path id="path5185" d="M372.7,880.2v-7.5h-1.3v7.5H372.7z"/>
	</g>
	<g id="g5187" transform="matrix(-.74314 -.66913 .66913 -.74314 193.31 1434.8)">
		<path id="path5189" d="M371.4,480.4v7.5h1.3v-7.5H371.4z"/>
		<path id="path5191" d="M372.7,880.2v-7.5h-1.3v7.5H372.7z"/>
	</g>
	<g id="g5193" transform="matrix(-.78801 -.61566 .61566 -.78801 246.38 1445.5)">
		<path id="path5195" d="M371.4,480.4v7.5h1.3v-7.5H371.4z"/>
		<path id="path5197" d="M372.7,880.2v-7.5h-1.3v7.5H372.7z"/>
	</g>
	<g id="g5199" transform="matrix(-.80902 -.58779 .58779 -.80902 273.16 1449.4)">
		<path id="path5201" d="M371.4,480.4v7.5h1.3v-7.5H371.4z"/>
		<path id="path5203" d="M372.7,880.2v-7.5h-1.3v7.5H372.7z"/>
	</g>
	<g id="g5205" transform="matrix(-.82904 -.55919 .55919 -.82904 300.06 1452.4)">
		<path id="path5207" d="M371.4,480.4v7.5h1.3v-7.5H371.4z"/>
		<path id="path5209" d="M372.7,880.2v-7.5h-1.3v7.5H372.7z"/>
	</g>
	<g id="g5211" transform="matrix(-.84805 -.52992 .52992 -.84805 327.04 1454.4)">
		<path id="path5213" d="M371.4,480.4v7.5h1.3v-7.5H371.4z"/>
		<path id="path5215" d="M372.7,880.2v-7.5h-1.3v7.5H372.7z"/>
	</g>
	<g id="g5217" transform="matrix(-.88295 -.46947 .46947 -.88295 381.15 1455.7)">
		<path id="path5219" d="M371.4,480.4v7.5h1.3v-7.5H371.4z"/>
		<path id="path5221" d="M372.7,880.2v-7.5h-1.3v7.5H372.7z"/>
	</g>
	<g id="g5223" transform="matrix(-.89879 -.43837 .43837 -.89879 408.21 1454.9)">
		<path id="path5225" d="M371.4,480.4v7.5h1.3v-7.5H371.4z"/>
		<path id="path5227" d="M372.7,880.2v-7.5h-1.3v7.5H372.7z"/>
	</g>
	<g id="g5229" transform="matrix(-.91355 -.40674 .40674 -.91355 435.22 1453.1)">
		<path id="path5231" d="M371.4,480.4v7.5h1.3v-7.5H371.4z"/>
		<path id="path5233" d="M372.7,880.2v-7.5h-1.3v7.5H372.7z"/>
	</g>
	<g id="g5235" transform="matrix(-.92718 -.37461 .37461 -.92718 462.15 1450.5)">
		<path id="path5237" d="M371.4,480.4v7.5h1.3v-7.5H371.4z"/>
		<path id="path5239" d="M372.7,880.2v-7.5h-1.3v7.5H372.7z"/>
	</g>
	<g id="g5241" transform="matrix(-.95106 -.30902 .30902 -.95106 515.65 1442.3)">
		<path id="path5243" d="M371.4,480.4v7.5h1.3v-7.5H371.4z"/>
		<path id="path5245" d="M372.7,880.2v-7.5h-1.3v7.5H372.7z"/>
	</g>
	<g id="g5247" transform="matrix(-.96126 -.27564 .27564 -.96126 542.16 1436.8)">
		<path id="path5249" d="M371.4,480.4v7.5h1.3v-7.5H371.4z"/>
		<path id="path5251" d="M372.7,880.2v-7.5h-1.3v7.5H372.7z"/>
	</g>
	<g id="g5253" transform="matrix(-.97030 -.24192 .24192 -.97030 568.46 1430.4)">
		<path id="path5255" d="M371.4,480.4v7.5h1.3v-7.5H371.4z"/>
		<path id="path5257" d="M372.7,880.2v-7.5h-1.3v7.5H372.7z"/>
	</g>
	<g id="g5259" transform="matrix(-.97815 -.20791 .20791 -.97815 594.51 1423.1)">
		<path id="path5261" d="M371.4,480.4v7.5h1.3v-7.5H371.4z"/>
		<path id="path5263" d="M372.7,880.2v-7.5h-1.3v7.5H372.7z"/>
	</g>
	<g id="g5265" transform="matrix(-.99027 -.13917 .13917 -.99027 645.79 1405.8)">
		<path id="path5267" d="M371.4,480.4v7.5h1.3v-7.5H371.4z"/>
		<path id="path5269" d="M372.7,880.2v-7.5h-1.3v7.5H372.7z"/>
	</g>
	<g id="g5271" transform="matrix(-.99452 -.10453 .10453 -.99452 670.94 1395.8)">
		<path id="path5273" d="M371.4,480.4v7.5h1.3v-7.5H371.4z"/>
		<path id="path5275" d="M372.7,880.2v-7.5h-1.3v7.5H372.7z"/>
	</g>
	<g id="g5277" transform="matrix(-.99756 -.069756 .069756 -.99756 695.73 1384.9)">
		<path id="path5279" d="M371.4,480.4v7.5h1.3v-7.5H371.4z"/>
		<path id="path5281" d="M372.7,880.2v-7.5h-1.3v7.5H372.7z"/>
	</g>
	<g id="g5283" transform="matrix(-.99939 -.034899 .034899 -.99939 720.12 1373.2)">
		<path id="path5285" d="M371.4,480.4v7.5h1.3v-7.5H371.4z"/>
		<path id="path5287" d="M372.7,880.2v-7.5h-1.3v7.5H372.7z"/>
	</g>
	<path id="path5461" class="st3" d="M474.5,680.3c0,56.6-45.9,102.4-102.4,102.4s-102.4-45.9-102.4-102.4S315.5,577.9,372,577.9
		S474.5,623.8,474.5,680.3z"/>
	<g id="g5475">
		<path id="path5463" class="st4" d="M200.2,751.5l343.7-142.4"/>
		<path id="path5469" class="st4" d="M300.9,852.2l142.4-343.7"/>
		<path id="path5471" class="st4" d="M443.2,852.2L300.9,508.4"/>
		<path id="path5473" class="st4" d="M543.9,751.5L200.2,609.1"/>
	</g>
	<path id="path5442" class="st5" d="M371.7,542l-7.4,123.5L303.4,612l53.6,60.5L233.7,680l123.3,8l-53.7,60.6l60.9-53.5l7.4,123.5
		l8-123.3l60.5,53.6L386.8,688l123.6-8.1l-123.5-7.4l53.4-60.8l-60.5,53.6L371.7,542L371.7,542z"/>
	<path id="path6530" class="st5" d="M371.7,542c-2.5,41.2-5,82.3-7.4,123.5c-20.3-17.8-40.6-35.6-60.9-53.5
		c17.9,20.2,35.7,40.4,53.6,60.5c-41.1,2.5-82.2,4.9-123.2,7.4c41.1,2.7,82.2,5.4,123.3,8c-17.9,20.2-35.8,40.4-53.7,60.6
		c20.3-17.8,40.6-35.6,60.9-53.5c2.5,41.2,5,82.3,7.4,123.5c2.7-41.1,5.4-82.2,8-123.3c20.2,17.9,40.4,35.8,60.5,53.6
		c-17.8-20.3-35.7-40.6-53.5-60.9c41.2-2.7,82.4-5.4,123.6-8.1c-41.2-2.5-82.3-5-123.5-7.4c17.8-20.3,35.6-40.6,53.4-60.8
		c-20.2,17.9-40.4,35.8-60.5,53.6C377.1,624.2,374.4,583.1,371.7,542L371.7,542z"/>
</g>
<g id="layer4" transform="translate(-158.05 -162.05)" inkscape:groupmode="layer" inkscape:label="N-S-E-O">
	<g id="g5850" transform="translate(2.9315 .35331)">
		<g id="g5870" transform="matrix(0 1 -1 0 739.72 2.5782)">
			<g id="flowRoot5872" transform="translate(10.116 149.99)">
				<path id="path6266" d="M353.3,97.5c0,1.1,0.3,1.7,0.9,2c0.6,0.3,2.3,0.4,4.9,0.4h1.5c3.9,0,6.7-0.5,8.4-1.4
					c1.7-1,3.2-2.9,4.6-5.9h1.5l-2.5,9.3h-29.7v-1c2-0.1,3.3-0.5,3.9-1.1c0.6-0.6,0.9-1.9,0.9-3.8V71.5c0-1.9-0.3-3.2-0.9-3.8
					c-0.6-0.6-1.9-1-3.9-1.2v-1h29.2l0.2,7.9h-1.4c-0.5-2.5-1.2-4-2.2-4.7c-1-0.7-3-1-6.2-1h-7.4c-0.7,0-1.2,0.1-1.5,0.4
					c-0.2,0.2-0.3,0.7-0.3,1.5v12.2h8.5c2.3,0,3.9-0.3,4.5-1c0.7-0.7,1.2-2.1,1.5-4.2h1.3v12.8h-1.3c-0.4-2.3-0.9-3.7-1.6-4.3
					c-0.7-0.6-2.2-0.9-4.5-0.9h-8.5L353.3,97.5"/>
			</g>
			<g id="flowRoot5880" transform="matrix(-1 0 0 -1 767.75 590.45)">
				<path id="path6269" d="M424.1,65.5v1c-1.5,0.3-2.5,0.7-3,1.1c-0.5,0.4-1,1.4-1.5,2.8c-3,8.2-5.1,13.8-6.2,16.8
					c-1.1,3-2.8,8.1-5.1,15.2h-0.8l-8.8-23.3l-8.5,23.3h-0.8L378.8,73c-0.9-2.6-1.7-4.2-2.5-5c-0.7-0.8-1.8-1.3-3.2-1.4v-1h13.5v1
					c-1.4,0.1-2.3,0.2-2.9,0.5c-0.5,0.2-0.7,0.6-0.7,1.3c0,0.7,0.2,1.5,0.6,2.5l7.9,20.7l5.9-15.5l-1.8-4.5
					c-0.9-2.2-1.6-3.6-2.3-4.1c-0.6-0.5-1.7-0.8-3.3-0.9v-1h14.7v1c-2.8,0-4.2,0.7-4.2,1.9c0,0.4,0.5,1.9,1.5,4.5l7.3,18.8l6.9-18.6
					c0.6-1.7,0.9-3,0.9-4.1c0-0.7-0.3-1.3-0.9-1.6c-0.6-0.4-1.5-0.6-2.9-0.8v-1L424.1,65.5"/>
			</g>
		</g>
		<g id="flowRoot5914" transform="translate(-31.99 152.07)">
			<path id="path6272" class="st6" d="M417.8,66.6c-1,0.1-1.8,0.2-2.3,0.4c-0.5,0.1-1,0.4-1.5,0.8c-0.5,0.4-0.9,1.1-1.1,2.1
				c-0.2,0.9-0.3,2.2-0.3,3.7v28.9h-0.9l-24.3-30.2v21.6c0,2.8,0.3,4.6,1,5.6c0.7,0.9,2.1,1.4,4.2,1.5v1h-12.9v-1
				c2.3-0.1,3.7-0.6,4.3-1.5c0.7-0.9,1-2.7,1-5.6V69.6c-1.1-1.3-2-2.1-2.6-2.5c-0.6-0.4-1.5-0.5-2.7-0.6v-1h9.4l21.2,26.6V73.6
				c0-2.8-0.3-4.6-1-5.4c-0.7-0.9-2.1-1.4-4.2-1.6v-1h12.9L417.8,66.6"/>
		</g>
		<g id="flowRoot5922" transform="matrix(-1 0 0 -1 764.94 592.53)">
			<path id="path6275" d="M405,94.5c0-1.7-0.6-3.2-1.8-4.6c-1.2-1.4-2.7-2.5-4.4-3.5c-1.7-1-3.4-1.9-5.2-2.9c-1.7-1-3.1-2.3-4.3-3.9
				c-1.2-1.6-1.8-3.4-1.8-5.5c0-2.8,0.9-5,2.8-6.8c1.9-1.8,4.1-2.6,6.7-2.6c1.5,0,3.2,0.3,5,0.9c1.8,0.6,2.9,0.9,3.2,0.9
				c1,0,1.5-0.6,1.8-1.9h1.2l1.2,11.7H408c-0.9-3.2-2.2-5.6-4.1-7.2c-1.8-1.5-3.8-2.3-6-2.3c-1.7,0-3.1,0.5-4.1,1.4
				c-1.1,1-1.6,2.2-1.6,3.7c0,1.5,0.6,2.9,1.9,4.2s3.3,2.8,6.2,4.4c3.6,1.9,6.3,3.9,7.9,5.8c1.6,1.9,2.4,3.9,2.4,6.2
				c0,2.8-1.1,5.2-3.2,7.2c-2.2,1.9-4.8,2.9-8,2.9c-1.8,0-3.7-0.3-5.6-0.9c-1.9-0.6-3-0.9-3.5-0.9c-0.4,0-0.8,0.2-1,0.6
				c-0.3,0.3-0.5,0.8-0.5,1.3h-1.2L385.9,91h1.3c1.4,3.3,2.9,5.8,4.7,7.4s3.9,2.4,6.4,2.4c2,0,3.6-0.6,4.9-1.7
				C404.4,97.8,405,96.3,405,94.5"/>
		</g>
		<g id="g6103" transform="translate(3.5876 -.41572)">
			<g id="g6113" transform="matrix(.70711 .70711 -.70711 .70711 370.18 -149.48)">
				<g id="flowRoot6073" transform="translate(-32.161 189.68)">
					<path id="path6278" d="M399.9,60.4c-0.5,0.1-0.9,0.1-1.2,0.2c-0.2,0.1-0.5,0.2-0.8,0.4c-0.3,0.2-0.4,0.6-0.6,1.1
						c-0.1,0.5-0.1,1.1-0.1,1.9v14.7h-0.5l-12.4-15.4v11c0,1.4,0.2,2.4,0.5,2.8c0.3,0.4,1,0.7,2.1,0.8v0.5h-6.6v-0.5
						c1.2-0.1,1.9-0.3,2.2-0.8c0.3-0.4,0.5-1.4,0.5-2.8V61.9c-0.6-0.7-1-1.1-1.3-1.3c-0.3-0.2-0.8-0.3-1.4-0.3v-0.5h4.8L396,73.4V64
						c0-1.4-0.2-2.3-0.5-2.8c-0.3-0.4-1.1-0.7-2.2-0.8v-0.5h6.6L399.9,60.4"/>
					<path id="path6280" d="M406,76.1c0,0.5,0.1,0.9,0.4,1c0.3,0.1,1.1,0.2,2.5,0.2h0.8c2,0,3.4-0.2,4.3-0.7c0.9-0.5,1.6-1.5,2.3-3
						h0.8l-1.3,4.7h-15.1v-0.5c1-0.1,1.7-0.3,2-0.6c0.3-0.3,0.4-1,0.4-2V62.9c0-1-0.1-1.6-0.4-1.9c-0.3-0.3-1-0.5-2-0.6v-0.5h14.9
						l0.1,4H415c-0.2-1.3-0.6-2.1-1.1-2.4c-0.5-0.4-1.5-0.5-3.1-0.5h-3.8c-0.4,0-0.6,0.1-0.8,0.2c-0.1,0.1-0.2,0.4-0.2,0.8v6.2h4.3
						c1.2,0,2-0.2,2.3-0.5c0.4-0.4,0.6-1.1,0.8-2.1h0.6v6.5h-0.6c-0.2-1.2-0.5-1.9-0.8-2.2c-0.4-0.3-1.1-0.5-2.3-0.5H406V76.1"/>
				</g>
				<g id="flowRoot6081" transform="matrix(-1 0 0 -1 764.77 554.14)">
					<path id="path6283" d="M389.3,74.6c0-0.9-0.3-1.7-0.9-2.3c-0.6-0.7-1.4-1.3-2.2-1.8c-0.9-0.5-1.8-1-2.6-1.5
						c-0.9-0.5-1.6-1.2-2.2-2c-0.6-0.8-0.9-1.7-0.9-2.8c0-1.4,0.5-2.6,1.4-3.4c1-0.9,2.1-1.3,3.4-1.3c0.8,0,1.6,0.2,2.5,0.5
						c0.9,0.3,1.5,0.5,1.7,0.5c0.5,0,0.8-0.3,0.9-1h0.6l0.6,6h-0.7c-0.4-1.6-1.1-2.9-2.1-3.6c-0.9-0.8-1.9-1.2-3.1-1.2
						c-0.9,0-1.6,0.2-2.1,0.7c-0.5,0.5-0.8,1.1-0.8,1.9c0,0.7,0.3,1.5,1,2.1c0.6,0.7,1.7,1.4,3.2,2.2c1.8,1,3.2,2,4,2.9
						c0.8,1,1.2,2,1.2,3.2c0,1.4-0.6,2.7-1.7,3.6c-1.1,1-2.5,1.5-4.1,1.5c-0.9,0-1.9-0.2-2.9-0.5c-1-0.3-1.5-0.5-1.8-0.5
						c-0.2,0-0.4,0.1-0.5,0.3c-0.1,0.2-0.2,0.4-0.3,0.6h-0.6l-0.8-5.9h0.6c0.7,1.7,1.5,2.9,2.4,3.8c0.9,0.8,2,1.2,3.2,1.2
						c1,0,1.9-0.3,2.5-0.9C389,76.3,389.3,75.5,389.3,74.6"/>
					<path id="path6285" d="M418.9,59.9v0.5c-0.7,0.1-1.3,0.3-1.5,0.6c-0.3,0.2-0.5,0.7-0.8,1.4c-1.5,4.2-2.6,7-3.1,8.6
						c-0.5,1.5-1.4,4.1-2.6,7.8h-0.4L406,66.9l-4.3,11.8h-0.4l-5.4-15c-0.5-1.3-0.9-2.2-1.3-2.5c-0.4-0.4-0.9-0.7-1.6-0.7v-0.5h6.9
						v0.5c-0.7,0-1.2,0.1-1.5,0.3c-0.2,0.1-0.4,0.3-0.4,0.6c0,0.3,0.1,0.8,0.3,1.3l4,10.5l3-7.9l-0.9-2.3c-0.4-1.1-0.8-1.8-1.1-2.1
						c-0.3-0.3-0.9-0.4-1.7-0.4v-0.5h7.5v0.5c-1.4,0-2.2,0.3-2.2,1c0,0.2,0.3,1,0.8,2.3l3.7,9.5l3.5-9.5c0.3-0.8,0.4-1.5,0.4-2.1
						c0-0.4-0.1-0.6-0.4-0.8c-0.3-0.2-0.8-0.3-1.5-0.4v-0.5H418.9"/>
				</g>
			</g>
			<g id="g6123" transform="matrix(-.70711 .70711 -.70711 -.70711 887.74 376.99)">
				<g id="flowRoot6125" transform="translate(-32.161 189.68)">
					<path id="path6288" d="M394,74.6c0-0.9-0.3-1.7-0.9-2.3c-0.6-0.7-1.4-1.3-2.2-1.8c-0.9-0.5-1.8-1-2.6-1.5
						c-0.9-0.5-1.6-1.2-2.2-2c-0.6-0.8-0.9-1.7-0.9-2.8c0-1.4,0.5-2.6,1.4-3.4c1-0.9,2.1-1.3,3.4-1.3c0.8,0,1.6,0.2,2.5,0.5
						c0.9,0.3,1.5,0.5,1.7,0.5c0.5,0,0.8-0.3,0.9-1h0.6l0.6,6h-0.7c-0.4-1.6-1.1-2.9-2.1-3.6c-0.9-0.8-1.9-1.2-3.1-1.2
						c-0.9,0-1.6,0.2-2.1,0.7c-0.5,0.5-0.8,1.1-0.8,1.9c0,0.7,0.3,1.5,1,2.1c0.6,0.7,1.7,1.4,3.2,2.2c1.8,1,3.2,2,4,2.9
						c0.8,1,1.2,2,1.2,3.2c0,1.4-0.6,2.7-1.7,3.6c-1.1,1-2.5,1.5-4.1,1.5c-0.9,0-1.9-0.2-2.9-0.5c-1-0.3-1.5-0.5-1.8-0.5
						c-0.2,0-0.4,0.1-0.5,0.3c-0.1,0.2-0.2,0.4-0.3,0.6h-0.6l-0.8-5.9h0.6c0.7,1.7,1.5,2.9,2.4,3.8c0.9,0.8,2,1.2,3.2,1.2
						c1,0,1.9-0.3,2.5-0.9C393.6,76.3,394,75.5,394,74.6"/>
					<path id="path6290" d="M403.1,76.1c0,0.5,0.1,0.9,0.4,1c0.3,0.1,1.1,0.2,2.5,0.2h0.8c2,0,3.4-0.2,4.3-0.7
						c0.9-0.5,1.6-1.5,2.3-3h0.8l-1.3,4.7h-15.1v-0.5c1-0.1,1.7-0.3,2-0.6c0.3-0.3,0.4-1,0.4-2V62.9c0-1-0.1-1.6-0.4-1.9
						c-0.3-0.3-1-0.5-2-0.6v-0.5h14.9l0.1,4h-0.7c-0.2-1.3-0.6-2.1-1.1-2.4c-0.5-0.4-1.5-0.5-3.1-0.5H404c-0.4,0-0.6,0.1-0.8,0.2
						c-0.1,0.1-0.2,0.4-0.2,0.8v6.2h4.3c1.2,0,2-0.2,2.3-0.5c0.4-0.4,0.6-1.1,0.8-2.1h0.6v6.5h-0.6c-0.2-1.2-0.5-1.9-0.8-2.2
						c-0.4-0.3-1.1-0.5-2.3-0.5h-4.3V76.1"/>
				</g>
				<g id="flowRoot6133" transform="matrix(-1 0 0 -1 764.77 554.14)">
					<path id="path6293" d="M395.3,60.4c-0.5,0.1-0.9,0.1-1.2,0.2c-0.2,0.1-0.5,0.2-0.8,0.4c-0.3,0.2-0.4,0.6-0.6,1.1
						c-0.1,0.5-0.1,1.1-0.1,1.9v14.7h-0.5l-12.4-15.4v11c0,1.4,0.2,2.4,0.5,2.8c0.3,0.4,1,0.7,2.1,0.8v0.5h-6.6v-0.5
						c1.2-0.1,1.9-0.3,2.2-0.8c0.3-0.4,0.5-1.4,0.5-2.8V61.9c-0.6-0.7-1-1.1-1.3-1.3c-0.3-0.2-0.8-0.3-1.4-0.3v-0.5h4.8l10.8,13.6
						V64c0-1.4-0.2-2.3-0.5-2.8c-0.3-0.4-1.1-0.7-2.2-0.8v-0.5h6.6L395.3,60.4"/>
					<path id="path6295" d="M421.8,59.9v0.5c-0.7,0.1-1.3,0.3-1.5,0.6c-0.3,0.2-0.5,0.7-0.8,1.4c-1.5,4.2-2.6,7-3.1,8.6
						c-0.5,1.5-1.4,4.1-2.6,7.8h-0.4l-4.5-11.8l-4.3,11.8h-0.4l-5.4-15c-0.5-1.3-0.9-2.2-1.3-2.5c-0.4-0.4-0.9-0.7-1.6-0.7v-0.5h6.9
						v0.5c-0.7,0-1.2,0.1-1.5,0.3c-0.2,0.1-0.4,0.3-0.4,0.6c0,0.3,0.1,0.8,0.3,1.3l4,10.5l3-7.9l-0.9-2.3c-0.4-1.1-0.8-1.8-1.1-2.1
						c-0.3-0.3-0.9-0.4-1.7-0.4v-0.5h7.5v0.5c-1.4,0-2.2,0.3-2.2,1c0,0.2,0.3,1,0.8,2.3l3.7,9.5l3.5-9.5c0.3-0.8,0.4-1.5,0.4-2.1
						c0-0.4-0.1-0.6-0.4-0.8c-0.3-0.2-0.8-0.3-1.5-0.4v-0.5H421.8"/>
				</g>
			</g>
		</g>
	</g>
</g>
<g id="layer2" transform="translate(-158.05 -162.05)" inkscape:groupmode="layer" inkscape:label="Cristal">
	
		<linearGradient id="path5486_00000168824835635630634860000014284154812707970192_" gradientUnits="userSpaceOnUse" x1="816.8466" y1="126.0231" x2="524.0765" y2="413.5631" gradientTransform="matrix(0.9443 0 0 -0.9443 -254.044 633.7485)">
		<stop  offset="0" style="stop-color:#FF8D8D;stop-opacity:0.3"/>
		<stop  offset="1" style="stop-color:#FFFFFF;stop-opacity:0.24"/>
	</linearGradient>
	
		<linearGradient id="path5486_00000083081225703723758860000008545104306611889042_" gradientUnits="userSpaceOnUse" x1="500.7754" y1="419.1732" x2="825.7254" y2="134.6332" gradientTransform="matrix(0.9443 0 0 -0.9443 -254.044 633.7485)">
		<stop  offset="0" style="stop-color:#C30708"/>
		<stop  offset="1" style="stop-color:#771413"/>
	</linearGradient>
	
		<path id="path5486" sodipodi:cx="499.9245" sodipodi:cy="296.49142" sodipodi:rx="217.08179" sodipodi:ry="217.08179" sodipodi:type="arc" style="fill:url(#path5486_00000168824835635630634860000014284154812707970192_);stroke:url(#path5486_00000083081225703723758860000008545104306611889042_);stroke-width:9.9996;stroke-linecap:round;stroke-linejoin:round;stroke-miterlimit:3.7774;" d="
		M577,372c0,113.2-91.8,205-205,205s-205-91.8-205-205s91.8-205,205-205S577,258.8,577,372z"/>
</g>
<g id="layer3" transform="translate(-158.05 -162.05)" inkscape:groupmode="layer" inkscape:label="aguja">
	<path id="path5677" class="st8" d="M436.3,195.9l-62.4,155.7c-7.2,1.7-13.3,7-15.8,14.5l7,2.3c0,0,0,0,0,0l-6.9-2.2
		c-2.4,7.5-0.6,15.4,4.2,21l-41,162.6l62.4-155.6c1.8-0.4,3.5-1.1,5.2-1.9c2.5-1.3,4.7-3,6.5-5.1c0.3-0.4,0.6-0.7,0.9-1.1
		c1.1-1.5,2.1-3.2,2.8-5c0.2-0.5,0.4-0.9,0.5-1.4l-7-2.3c0,0,0,0,0,0l6.9,2.3c1.1-3.3,1.3-6.7,0.8-9.9c0,0,0,0,0,0
		c-0.5-3.7-2-7.1-4.3-10.1c-0.3-0.4-0.6-0.7-0.9-1.1L436.3,195.9L436.3,195.9z"/>
	<g id="g5663" transform="matrix(.95106 .30902 -.30902 .95106 133.39 -98.119)">
		<path id="path5435" class="st9" d="M372,186l-11.2,167.3c-6.3,3.8-10.5,10.7-10.5,18.7h9.2h25h9.3c0-7.9-4.2-14.9-10.6-18.7
			L372,186L372,186z"/>
		<path id="path5459" class="st10" d="M372,558.1l-11.2-167.3c-6.3-3.8-10.5-10.7-10.5-18.7h9.2h25h9.3c0,7.9-4.2,14.9-10.6,18.7
			L372,558.1L372,558.1z"/>
		
			<linearGradient id="path5547_00000111174807194634968840000002410431442060156564_" gradientUnits="userSpaceOnUse" x1="554.2115" y1="192.803" x2="542.3016" y2="327.513" gradientTransform="matrix(0.9511 -0.309 -0.309 -0.9511 -85.0841 720.5555)">
			<stop  offset="0" style="stop-color:#8B0000"/>
			<stop  offset="1" style="stop-color:#A40000;stop-opacity:0"/>
		</linearGradient>
		<path id="path5547" style="fill:url(#path5547_00000111174807194634968840000002410431442060156564_);" d="M372,187V372h12.4h9.3
			c0-7.9-4.2-14.9-10.6-18.7L372,187L372,187z"/>
		
			<linearGradient id="path5552_00000132771079666259993100000011323052222958354817_" gradientUnits="userSpaceOnUse" x1="552.8444" y1="186.795" x2="541.9244" y2="35.455" gradientTransform="matrix(0.9511 -0.309 -0.309 -0.9511 -85.0841 720.5555)">
			<stop  offset="0" style="stop-color:#173560"/>
			<stop  offset="1" style="stop-color:#204A87;stop-opacity:0"/>
		</linearGradient>
		<path id="path5552" style="fill:url(#path5552_00000132771079666259993100000011323052222958354817_);" d="M372,372.1v186
			l11.2-167.3c6.3-3.8,10.6-10.7,10.6-18.7h-9.3L372,372.1L372,372.1z"/>
		
			<linearGradient id="path5573_00000038377513674671667130000002238903973624870794_" gradientUnits="userSpaceOnUse" x1="537.9829" y1="176.2126" x2="537.9829" y2="325.2026" gradientTransform="matrix(0.9511 -0.2852 -0.309 -0.8777 -85.0841 666.028)">
			<stop  offset="0" style="stop-color:#F2F2F2"/>
			<stop  offset="1" style="stop-color:#F2F2F2;stop-opacity:0"/>
		</linearGradient>
		
			<path id="path5573" sodipodi:nodetypes="cc" style="fill:#F2F2F2;stroke:url(#path5573_00000038377513674671667130000002238903973624870794_);stroke-width:1;stroke-miterlimit:4;" d="
			M371.9,186.2l0.4,171.3"/>
		
			<linearGradient id="path5583_00000178887494716667277180000006166032009147198109_" gradientUnits="userSpaceOnUse" x1="654.293" y1="534.176" x2="654.293" y2="683.166" gradientTransform="matrix(0.9511 0.2814 -0.309 0.8659 -85.084 -260.3056)">
			<stop  offset="0" style="stop-color:#F2F2F2"/>
			<stop  offset="1" style="stop-color:#F2F2F2;stop-opacity:0"/>
		</linearGradient>
		
			<path id="path5583" sodipodi:nodetypes="cc" style="fill:#F2F2F2;stroke:url(#path5583_00000178887494716667277180000006166032009147198109_);stroke-width:1;stroke-miterlimit:4;" d="
			M371.9,555.8l0.4-169"/>
		
			<linearGradient id="path5589_00000178893460327372519830000018002973975122123431_" gradientUnits="userSpaceOnUse" x1="536.8614" y1="201.6595" x2="559.9614" y2="177.7195" gradientTransform="matrix(0.9511 -0.309 -0.309 -0.9511 -85.0841 720.5555)">
			<stop  offset="0" style="stop-color:#EEEEEC"/>
			<stop  offset="1" style="stop-color:#D3D7CF;stop-opacity:0"/>
		</linearGradient>
		<path id="path5589" style="fill:url(#path5589_00000178893460327372519830000018002973975122123431_);" d="M372,357.5
			c-8,0-14.5,6.5-14.5,14.5s6.5,14.5,14.5,14.5s14.5-6.5,14.5-14.5S380.1,357.5,372,357.5z M372,359.7c6.8,0,12.4,5.5,12.4,12.4
			s-5.6,12.4-12.4,12.4c-6.8,0-12.4-5.6-12.4-12.4C359.7,365.2,365.2,359.7,372,359.7z"/>
		
			<linearGradient id="path5591_00000160161337926461896110000007729153171340852383_" gradientUnits="userSpaceOnUse" x1="449.6554" y1="88.6678" x2="471.5954" y2="52.7678" gradientTransform="matrix(0.7928 -0.1592 -0.2576 -0.49 26.1066 474.6694)">
			<stop  offset="0" style="stop-color:#888A85"/>
			<stop  offset="1" style="stop-color:#D3D7CF"/>
		</linearGradient>
		
			<path id="path5591" sodipodi:cx="300.87393" sodipodi:cy="359.05533" sodipodi:rx="14.849242" sodipodi:ry="24.026579" sodipodi:type="arc" style="fill:url(#path5591_00000160161337926461896110000007729153171340852383_);" d="
			M384.4,372.1c0,6.8-5.5,12.4-12.4,12.4c-6.8,0-12.4-5.5-12.4-12.4s5.5-12.4,12.4-12.4C378.9,359.7,384.4,365.2,384.4,372.1z"/>
		
			<linearGradient id="rect5611_00000007411626796953926730000001555913246373311114_" gradientUnits="userSpaceOnUse" x1="415.5507" y1="177.6761" x2="418.0699" y2="177.6761" gradientTransform="matrix(0.636 -0.7717 -0.7717 -0.636 243.7679 806.4435)">
			<stop  offset="0" style="stop-color:#888A85"/>
			<stop  offset="1" style="stop-color:#BABDB6"/>
		</linearGradient>
		
			<path id="rect5611" sodipodi:nodetypes="ccccscccc" style="fill:url(#rect5611_00000007411626796953926730000001555913246373311114_);" d="
			M366.8,363.8c0.3-0.2,0.8-0.1,1,0.2l5.3,7.4l4.5,7.9c0.2,0.3,0.1,0.8-0.2,1s-0.8,0.1-1-0.2l-5.4-7.3l-4.4-8
			C366.3,364.4,366.4,364,366.8,363.8L366.8,363.8z"/>
		
			<linearGradient id="rect5635_00000098219292566775423020000014053610942650904255_" gradientUnits="userSpaceOnUse" x1="678.2067" y1="358.9386" x2="680.5048" y2="358.9386" gradientTransform="matrix(0.7717 0.636 0.636 -0.7717 -380.281 216.6886)">
			<stop  offset="0" style="stop-color:#888A85"/>
			<stop  offset="1" style="stop-color:#D3D7CF"/>
		</linearGradient>
		
			<path id="rect5635" sodipodi:nodetypes="ccccscccc" style="fill:url(#rect5635_00000098219292566775423020000014053610942650904255_);" d="
			M380.3,366.8c0.2,0.3,0.1,0.8-0.2,1l-7.5,5.2l-7.9,4.6c-0.3,0.2-0.8,0.1-1-0.2s-0.1-0.8,0.2-1l7.4-5.3l8-4.4
			C379.7,366.3,380.1,366.4,380.3,366.8L380.3,366.8z"/>
	</g>
</g>
</svg>
